<?xml version="1.0" encoding="UTF-8" standalone="no"?>
{/* Generator: Adobe Illustrator 27.2.0, SVG Export Plug-In . SVG Version: 6.00 Build 0)  */}

<svg
   version="1.1"
   id="Capa_1"
   x="0px"
   y="0px"
   viewBox="0 0 96.000375 96.372706"
   xml:space="preserve"
   width="12"
   height="12.046541"
   sodipodi:docname="agreement.svg"
   inkscape:version="1.2.2 (732a01da63, 2022-12-09)"
   xmlns:inkscape="http://www.inkscape.org/namespaces/inkscape"
   xmlns:sodipodi="http://sodipodi.sourceforge.net/DTD/sodipodi-0.dtd"
   xmlns="http://www.w3.org/2000/svg"
   xmlns:svg="http://www.w3.org/2000/svg"><defs
   id="defs390" /><sodipodi:namedview
   id="namedview388"
   pagecolor="#505050"
   bordercolor="#eeeeee"
   borderopacity="1"
   inkscape:showpageshadow="0"
   inkscape:pageopacity="0"
   inkscape:pagecheckerboard="0"
   inkscape:deskcolor="#505050"
   showgrid="false"
   inkscape:zoom="12.5625"
   inkscape:cx="31.840796"
   inkscape:cy="19.303483"
   inkscape:window-width="1920"
   inkscape:window-height="991"
   inkscape:window-x="1699"
   inkscape:window-y="-9"
   inkscape:window-maximized="1"
   inkscape:current-layer="Outline_00000108991072127760130210000006461695425980725385_" />
<g
   id="Outline_00000108991072127760130210000006461695425980725385_"
   transform="translate(-0.9883013,8.8934614e-4)">
	<g
   id="g372">
		<path
   d="M 96.948379,78.605082 92.167416,54.632507 C 92.060127,54.092296 91.740141,53.616082 91.28275,53.311154 90.823477,53.006227 90.260678,52.898937 89.722349,53.008109 L 74.165398,56.19479 61.450672,51.274539 C 61.213506,51.182308 60.9594,51.135251 60.705293,51.135251 H 41.865665 c -0.387748,0 -0.764201,0.109172 -1.089834,0.310575 L 24.895129,55.195305 7.0493384,52.827411 C 5.9350353,52.678712 4.9054342,53.44856 4.7322655,54.560981 L 1.0129023,78.36227 c -0.0884666,0.568445 0.063997,1.150066 0.419746,1.601811 0.357631,0.451744 0.8865486,0.735967 1.4625228,0.781141 l 16.0406949,1.276178 2.349071,0.959957 c -0.449862,1.876622 0.05459,3.937707 1.50958,5.398347 1.082305,1.084187 2.518476,1.682749 4.04876,1.682749 0.96184,0 1.886034,-0.237166 2.708585,-0.681382 0.04329,0.08658 0.08847,0.173169 0.135523,0.257871 0.250342,0.453627 0.568446,0.87902 0.952428,1.264885 1.080423,1.084187 2.518476,1.682748 4.048761,1.682748 0.643736,0 1.268649,-0.105407 1.857799,-0.308692 0.237166,0.47245 0.553387,0.914783 0.946781,1.310059 0.97878,0.982545 2.279428,1.522756 3.664778,1.522756 1.183947,0 2.305779,-0.393395 3.218679,-1.123715 0.193874,0.30681 0.425393,0.594797 0.690793,0.862079 0.97878,0.982545 2.279427,1.522756 3.664777,1.522756 1.270532,0 2.471419,-0.453627 3.416318,-1.289354 0.986309,0.284222 1.997087,0.42351 3.004101,0.42351 2.268134,0 4.511799,-0.711497 6.399714,-2.083671 l 13.84597,-8.73561 19.891816,-3.640308 c 0.545858,-0.09976 1.029601,-0.414099 1.340176,-0.873373 0.312456,-0.459273 0.427275,-1.023954 0.318103,-1.56793 z M 13.959147,77.471957 5.4494099,76.79434 8.5118613,57.198039 16.84843,58.304813 Z m 17.362048,4.609676 c 0,0 -3.35985,3.371143 -3.363615,3.374908 -0.607972,0.609855 -1.620633,0.607973 -2.228606,0 -0.621149,-0.623031 -0.621149,-1.637574 0,-2.260605 0,0 3.357968,-3.371143 3.361732,-3.374908 0.607973,-0.609855 1.624398,-0.607973 2.230489,0 0.621148,0.623031 0.621148,1.637574 0,2.260605 z m 7.843414,2.524122 c 0,0 -3.357968,3.371144 -3.361732,3.374908 -0.606091,0.609855 -1.624398,0.606091 -2.230489,0 -0.619266,-0.623031 -0.619266,-1.637573 0,-2.260604 0,0 3.359285,-3.370579 3.363615,-3.374908 0.588962,-0.591598 1.625527,-0.606844 2.228606,0 0.621149,0.623031 0.621149,1.637573 0,2.260604 z m 6.853341,1.91615 -4.127816,4.142874 c -0.400923,0.402805 -1.065364,0.399041 -1.464405,0 -0.353867,-0.357631 -0.400923,-0.905372 -0.14117,-1.313824 l 4.268986,-4.321689 c 0.400923,-0.400923 1.065364,-0.400923 1.464405,0 0.410334,0.412217 0.410334,1.080422 0,1.492639 z m 3.446434,5.403994 c -0.400923,0.402805 -1.065364,0.399041 -1.464405,0 -0.408453,-0.412217 -0.408453,-1.080422 0,-1.492639 l 2.224841,-2.232371 c 0.395277,-0.395277 1.072894,-0.395277 1.464406,0 0.410334,0.410334 0.410334,1.080422 0,1.490757 z m 9.693684,-1.882269 c -1.069128,0.788671 -2.324602,1.232886 -3.610191,1.308177 1.018307,-1.955677 0.709615,-4.432743 -0.924194,-6.074082 -0.97878,-0.982544 -2.28131,-1.522755 -3.66666,-1.522755 -0.293634,0 -0.583503,0.02447 -0.867726,0.07341 -0.252224,-0.626795 -0.63056,-1.214063 -1.13689,-1.722276 -0.97878,-0.982544 -2.28131,-1.522755 -3.66666,-1.522755 -0.724673,0 -1.424877,0.146817 -2.068613,0.429157 -0.271047,-0.575974 -0.643736,-1.114303 -1.118068,-1.590517 -1.047483,-1.051812 -2.547839,-1.682748 -4.04876,-1.682748 -0.96184,0 -1.887916,0.237166 -2.710467,0.683263 C 35.072557,77.871 34.709279,77.35714 34.25377,76.899749 33.173347,75.81368 31.735294,75.217001 30.205009,75.217001 c -1.528402,0 -2.966455,0.596679 -4.046878,1.682748 l -2.550474,2.559885 -3.40126,-1.392878 c -0.197638,-0.08094 -0.40657,-0.129877 -0.619266,-0.146817 l -1.488875,-0.118583 2.857284,-18.952565 3.772067,0.500683 c 0.250342,0.03388 0.504448,0.0207 0.749143,-0.03764 l 9.535574,-2.286957 -6.815695,6.682055 c -0.393395,0.385865 -0.617385,0.914782 -0.619267,1.466287 -0.0038,0.551505 0.212696,1.082305 0.602326,1.473817 4.494858,4.511798 11.670067,4.651086 16.336211,0.318103 l 1.500168,-1.390997 c 2.209784,2.514712 6.66135,7.207208 11.265379,9.902617 5.036952,2.949515 10.090843,5.712686 13.226703,7.399198 z M 74.959715,80.558877 C 72.904277,79.472808 66.126227,75.85697 59.372647,71.902323 53.671255,68.565061 47.870102,61.361618 47.811752,61.288209 c -0.359513,-0.449862 -0.890313,-0.728438 -1.464405,-0.77173 -0.05082,-0.0038 -0.101643,-0.0056 -0.152464,-0.0056 -0.521389,0 -1.023954,0.197639 -1.409819,0.553387 l -3.086921,2.866696 c -2.492124,2.31519 -6.08914,2.659646 -8.906896,1.071011 l 9.919556,-9.725683 h 17.606743 l 12.919893,4.999306 c 0.370807,0.143052 0.773612,0.176933 1.163242,0.09788 l 2.134493,-0.436687 3.687365,19.658416 z m 9.334171,-1.7091 -3.70054,-19.744999 7.920587,-1.622516 3.962176,19.869229 z"
   id="path370"
   style="fill:#ffffff;stroke-width:0.188227" />
	</g>
	<g
   id="g376"
   transform="matrix(0.18822688,0,0,0.18822688,0.80227645,-7.2194729e-4)">
		<path
   style="fill:#33cccc"
   d="m 223.897,257.125 c -3.115,0 -6.273,-0.406 -9.442,-1.428 -10.221,-3.296 -16.571,-11.41 -22.174,-18.569 -3.015,-3.852 -5.862,-7.49 -8.661,-9.513 -2.874,-2.077 -7.294,-3.674 -11.974,-5.364 -8.521,-3.077 -18.178,-6.565 -24.429,-15.096 -6.213,-8.478 -6.586,-18.661 -6.916,-27.644 -0.183,-4.974 -0.354,-9.671 -1.474,-13.094 -1.027,-3.142 -3.586,-6.885 -6.296,-10.848 -5.166,-7.556 -11.021,-16.119 -11.021,-27.007 0,-10.887 5.855,-19.451 11.021,-27.006 2.709,-3.963 5.269,-7.707 6.296,-10.849 1.119,-3.423 1.292,-8.121 1.474,-13.095 0.329,-8.983 0.703,-19.166 6.916,-27.644 6.251,-8.53 15.908,-12.018 24.429,-15.096 4.68,-1.69 9.1,-3.287 11.974,-5.364 2.798,-2.022 5.646,-5.661 8.66,-9.512 5.603,-7.159 11.954,-15.273 22.174,-18.569 9.837,-3.172 19.587,-0.412 28.188,2.023 4.918,1.393 9.563,2.708 13.356,2.708 3.793,0 8.438,-1.315 13.356,-2.708 8.601,-2.435 18.349,-5.195 28.188,-2.023 10.22,3.295 16.57,11.41 22.173,18.569 3.015,3.852 5.862,7.49 8.66,9.513 2.875,2.078 7.295,3.674 11.975,5.364 8.521,3.077 18.178,6.565 24.429,15.095 6.213,8.479 6.587,18.66 6.916,27.643 0.183,4.974 0.354,9.672 1.474,13.095 1.027,3.143 3.587,6.886 6.297,10.85 5.165,7.555 11.021,16.119 11.021,27.006 0,10.887 -5.854,19.45 -11.021,27.005 -2.71,3.963 -5.27,7.707 -6.297,10.849 -1.119,3.424 -1.291,8.122 -1.474,13.096 -0.329,8.983 -0.703,19.165 -6.915,27.643 -6.252,8.531 -15.909,12.019 -24.43,15.096 -4.68,1.69 -9.1,3.287 -11.975,5.364 -2.798,2.022 -5.645,5.66 -8.659,9.512 -5.603,7.159 -11.953,15.274 -22.174,18.57 -9.837,3.173 -19.586,0.412 -28.188,-2.023 -4.918,-1.393 -9.563,-2.708 -13.356,-2.708 -3.793,0 -8.438,1.315 -13.357,2.708 -5.829,1.651 -12.188,3.451 -18.744,3.451 z M 223.91,22.004 c -1.009,0 -1.92,0.11 -2.704,0.363 -3.803,1.226 -7.591,6.066 -11.601,11.19 -3.824,4.886 -7.779,9.939 -13.098,13.783 -5.38,3.889 -11.485,6.094 -17.388,8.226 -5.835,2.107 -11.87,4.287 -14.157,7.408 -2.22,3.03 -2.452,9.342 -2.676,15.446 -0.219,5.982 -0.468,12.763 -2.548,19.125 -2.004,6.128 -5.584,11.365 -9.046,16.428 -3.693,5.402 -7.182,10.504 -7.182,14.59 0,4.086 3.488,9.188 7.182,14.59 3.462,5.064 7.042,10.3 9.046,16.429 2.081,6.363 2.329,13.143 2.548,19.125 0.224,6.104 0.455,12.416 2.675,15.446 2.287,3.121 8.321,5.3 14.157,7.408 5.903,2.132 12.007,4.337 17.388,8.225 5.319,3.845 9.274,8.897 13.098,13.784 4.01,5.124 7.798,9.964 11.601,11.19 3.499,1.129 9.571,-0.591 15.442,-2.253 5.86,-1.659 12.503,-3.54 19.351,-3.54 6.848,0 13.489,1.881 19.351,3.54 5.87,1.662 11.942,3.381 15.442,2.253 3.803,-1.226 7.591,-6.066 11.601,-11.19 3.824,-4.887 7.778,-9.939 13.098,-13.784 5.381,-3.889 11.484,-6.093 17.388,-8.226 5.836,-2.107 11.87,-4.287 14.158,-7.408 2.22,-3.029 2.451,-9.341 2.675,-15.444 0.22,-5.983 0.468,-12.764 2.549,-19.127 2.003,-6.128 5.584,-11.365 9.046,-16.429 3.693,-5.401 7.182,-10.503 7.182,-14.588 0,-4.085 -3.488,-9.188 -7.182,-14.589 -3.463,-5.064 -7.043,-10.301 -9.046,-16.43 -2.081,-6.362 -2.329,-13.143 -2.549,-19.125 -0.224,-6.104 -0.455,-12.415 -2.676,-15.445 -2.287,-3.121 -8.321,-5.3 -14.156,-7.408 -5.903,-2.132 -12.008,-4.337 -17.389,-8.226 -5.319,-3.845 -9.273,-8.897 -13.098,-13.784 -4.011,-5.124 -7.798,-9.963 -11.601,-11.189 -3.498,-1.129 -9.572,0.59 -15.443,2.253 -5.86,1.659 -12.502,3.54 -19.35,3.54 -6.848,0 -13.49,-1.881 -19.351,-3.54 -4.556,-1.292 -9.235,-2.617 -12.737,-2.617 z"
   id="path374" />
	</g>
	<g
   id="g380"
   style="fill:#ffffff"
   transform="matrix(0.18822688,0,0,0.18822688,0.80227645,-7.2194729e-4)">
		<path
   d="m 255.999,218.595 c -49.644,0 -90.032,-40.388 -90.032,-90.032 0,-49.644 40.388,-90.032 90.032,-90.032 49.644,0 90.032,40.388 90.032,90.032 0,49.644 -40.388,90.032 -90.032,90.032 z m 0,-158.065 c -37.513,0 -68.032,30.519 -68.032,68.032 0,37.513 30.519,68.032 68.032,68.032 37.513,0 68.032,-30.519 68.032,-68.032 0,-37.513 -30.519,-68.032 -68.032,-68.032 z"
   id="path378"
   style="fill:#ffffff" />
	</g>
	<g
   id="g384"
   transform="matrix(0.18822688,0,0,0.18822688,0.80227645,-7.2194729e-4)">
		<path
   style="fill:#33cccc"
   d="m 238.221,167.373 c -2.815,0 -5.63,-1.074 -7.778,-3.222 l -20.065,-20.065 c -4.295,-4.296 -4.295,-11.261 0,-15.557 4.296,-4.296 11.261,-4.296 15.557,0 l 12.287,12.287 47.844,-47.844 c 4.296,-4.295 11.261,-4.295 15.557,0 4.296,4.296 4.296,11.261 0,15.557 l -55.622,55.622 c -2.15,2.148 -4.965,3.222 -7.78,3.222 z"
   id="path382" />
	</g>
</g>















</svg>
