<?xml version="1.0" encoding="UTF-8" standalone="no"?>
<svg
   version="1.1"
   width="31.372375"
   height="32"
   x="0"
   y="0"
   viewBox="0 0 31.372375 32"
   xml:space="preserve"
   
   id="svg290"
   sodipodi:docname="carpet-clean-icon.svg"
   inkscape:version="1.2.2 (732a01da63, 2022-12-09)"
   xmlns:inkscape="http://www.inkscape.org/namespaces/inkscape"
   xmlns:sodipodi="http://sodipodi.sourceforge.net/DTD/sodipodi-0.dtd"
   xmlns="http://www.w3.org/2000/svg"
   xmlns:svg="http://www.w3.org/2000/svg"><defs
   id="defs294" /><sodipodi:namedview
   id="namedview292"
   pagecolor="#505050"
   bordercolor="#eeeeee"
   borderopacity="1"
   inkscape:showpageshadow="0"
   inkscape:pageopacity="0"
   inkscape:pagecheckerboard="0"
   inkscape:deskcolor="#505050"
   showgrid="false"
   inkscape:zoom="1.5703125"
   inkscape:cx="250.90547"
   inkscape:cy="256.31841"
   inkscape:window-width="1920"
   inkscape:window-height="991"
   inkscape:window-x="1699"
   inkscape:window-y="-9"
   inkscape:window-maximized="1"
   inkscape:current-layer="svg290" />
  <g
   id="g288"
   transform="matrix(0.0625,0,0,0.0625,-0.31381249,0)">
    <circle
   cx="65.224998"
   cy="451.79599"
   r="50.203999"
   style="stroke-width:20;stroke-linecap:round;stroke-linejoin:round;stroke-miterlimit:10"
   fill="none"
   stroke="#ffffff"
   stroke-width="20"
   stroke-linecap="round"
   stroke-linejoin="round"
   stroke-miterlimit="10"
   data-original="#000000"
   
   id="circle280" />
    <path
   d="m 65.225,451.796 v 0 M 95.348,411.643 V 110.408 h 55.224 c 66.54,0 125.511,53.949 125.511,120.49 v 240.979 c 0,16.638 -13.484,30.122 -30.123,30.122 H 66.229 M 95.348,110.408 H 65.225 c -16.636,0 -30.123,13.486 -30.123,30.123 v 271.111"
   style="stroke-width:20;stroke-linecap:round;stroke-linejoin:round;stroke-miterlimit:10"
   fill="none"
   stroke="#ffffff"
   stroke-width="20"
   stroke-linecap="round"
   stroke-linejoin="round"
   stroke-miterlimit="10"
   data-original="#000000"
   
   id="path282" />
    <path
   d="M 426.693,401.592 V 130.49 C 426.693,63.949 372.744,10 306.204,10 c -33.276,0 -63.398,13.484 -85.196,35.294 -18.254,18.244 -30.675,42.321 -34.239,69.201 m 270.047,337.301 v -20.082 c 0,-16.638 -13.484,-30.122 -30.123,-30.122 h -40.162 c -16.639,0 -30.123,13.484 -30.123,30.122 v 20.082"
   style="stroke-width:20;stroke-linecap:round;stroke-linejoin:round;stroke-miterlimit:10"
   fill="none"
   stroke="#ffffff"
   stroke-width="20"
   stroke-linecap="round"
   stroke-linejoin="round"
   stroke-miterlimit="10"
   data-original="#000000"
   
   id="path284" />
    <path
   d="m 225.878,133.03 v -2.54 c 0,-44.36 35.966,-80.327 80.326,-80.327 22.181,0 42.262,8.997 56.802,23.525 14.528,14.54 23.525,34.621 23.525,56.802 V 401.592 M 165.633,111.332 v 169.77 c 0,33.275 26.969,60.245 60.245,60.245 h 50.204 M 476.898,502 H 336.326 c -11.09,0 -20.081,-8.99 -20.081,-20.082 v -10.04 c 0,-11.092 8.991,-20.082 20.081,-20.082 h 140.572 c 11.09,0 20.081,8.99 20.081,20.082 v 10.04 c 0,11.092 -8.991,20.082 -20.081,20.082 z M 155.592,381.51 h 80.326 m -80.326,40.164 h 80.326 m -80.326,40.163 h 80.326"
   style="stroke-width:20;stroke-linecap:round;stroke-linejoin:round;stroke-miterlimit:10"
   fill="none"
   stroke="#ffffff"
   stroke-width="20"
   stroke-linecap="round"
   stroke-linejoin="round"
   stroke-miterlimit="10"
   data-original="#000000"
   
   id="path286" />
  </g>
</svg>
