<?xml version="1.0" encoding="UTF-8" standalone="no"?>
<svg
   version="1.1"
   width="32"
   height="32"
   x="0"
   y="0"
   viewBox="0 0 42.666688 42.666688"
   xml:space="preserve"
   id="svg420"
   sodipodi:docname="clean-icon.svg"
   inkscape:version="1.2.2 (732a01da63, 2022-12-09)"
   xmlns:inkscape="http://www.inkscape.org/namespaces/inkscape"
   xmlns:sodipodi="http://sodipodi.sourceforge.net/DTD/sodipodi-0.dtd"
   xmlns="http://www.w3.org/2000/svg"
   xmlns:svg="http://www.w3.org/2000/svg"><defs
   id="defs424" /><sodipodi:namedview
   id="namedview422"
   pagecolor="#505050"
   bordercolor="#eeeeee"
   borderopacity="1"
   inkscape:showpageshadow="0"
   inkscape:pageopacity="0"
   inkscape:pagecheckerboard="0"
   inkscape:deskcolor="#505050"
   showgrid="false"
   inkscape:zoom="1.5703125"
   inkscape:cx="256"
   inkscape:cy="256.31841"
   inkscape:window-width="1920"
   inkscape:window-height="991"
   inkscape:window-x="1699"
   inkscape:window-y="-9"
   inkscape:window-maximized="1"
   inkscape:current-layer="svg420" />
  <g
   id="g418"
   transform="matrix(0.06250019,0,0,0.06250019,0,-1.2750039e-4)">
    <defs
   id="defs368">
      <clipPath
   id="a">
        <path
   d="M 0,512 H 512 V 0 H 0 Z"
   fill="#ffffff"
   data-original="#000000"
   id="path365" />
      </clipPath>
    </defs>
    <path
   d="M 0,0 V -60"
   style="stroke-width:20;stroke-linecap:round;stroke-linejoin:round;stroke-miterlimit:10;stroke-dasharray:none;stroke-opacity:1"
   transform="matrix(1.33333,0,0,-1.33333,234.667,288)"
   fill="none"
   stroke="#ffffff"
   stroke-width="20"
   stroke-linecap="round"
   stroke-linejoin="round"
   stroke-miterlimit="10"
   stroke-dasharray="none"
   stroke-opacity=""
   data-original="#000000"
   id="path370" />
    <g
   clip-path="url(#a)"
   transform="matrix(1.33333,0,0,-1.33333,0,682.667)"
   id="g416">
      <path
   d="m 0,0 v 120 c 0,52.99 -40,50.46 -40,0"
   style="stroke-width:20;stroke-linecap:round;stroke-linejoin:round;stroke-miterlimit:10;stroke-dasharray:none;stroke-opacity:1"
   transform="translate(216,196)"
   fill="none"
   stroke="#ffffff"
   stroke-width="20"
   stroke-linecap="round"
   stroke-linejoin="round"
   stroke-miterlimit="10"
   stroke-dasharray="none"
   stroke-opacity=""
   data-original="#000000"
   id="path372" />
      <path
   d="m 0,0 c 0,51.1 -40,52.54 -40,0 v -103.43 c 0,-36.22 14.39,-70.96 40,-96.57 v -86 h 120 v 86 c 25.61,25.61 40,60.35 40,96.57 v 40.83"
   style="stroke-width:20;stroke-linecap:round;stroke-linejoin:round;stroke-miterlimit:10;stroke-dasharray:none;stroke-opacity:1"
   transform="translate(96,296)"
   fill="none"
   stroke="#ffffff"
   stroke-width="20"
   stroke-linecap="round"
   stroke-linejoin="round"
   stroke-miterlimit="10"
   stroke-dasharray="none"
   stroke-opacity=""
   data-original="#000000"
   id="path374" />
      <path
   d="M 0,0 V 40"
   style="stroke-width:20;stroke-linecap:round;stroke-linejoin:round;stroke-miterlimit:10;stroke-dasharray:none;stroke-opacity:1"
   transform="translate(96,236)"
   fill="none"
   stroke="#ffffff"
   stroke-width="20"
   stroke-linecap="round"
   stroke-linejoin="round"
   stroke-miterlimit="10"
   stroke-dasharray="none"
   stroke-opacity=""
   data-original="#000000"
   id="path376" />
      <path
   d="M 0,0 V -50"
   style="stroke-width:20;stroke-linecap:round;stroke-linejoin:round;stroke-miterlimit:10;stroke-dasharray:none;stroke-opacity:1"
   transform="translate(136,286)"
   fill="none"
   stroke="#ffffff"
   stroke-width="20"
   stroke-linecap="round"
   stroke-linejoin="round"
   stroke-miterlimit="10"
   stroke-dasharray="none"
   stroke-opacity=""
   data-original="#000000"
   id="path378" />
      <path
   d="m 0,0 v 40 c 0,52.69 40,53.07 40,0"
   style="stroke-width:20;stroke-linecap:round;stroke-linejoin:round;stroke-miterlimit:10;stroke-dasharray:none;stroke-opacity:1"
   transform="translate(96,276)"
   fill="none"
   stroke="#ffffff"
   stroke-width="20"
   stroke-linecap="round"
   stroke-linejoin="round"
   stroke-miterlimit="10"
   stroke-dasharray="none"
   stroke-opacity=""
   data-original="#000000"
   id="path380" />
      <path
   d="m 0,0 v 50 c 0,52.69 40,53.07 40,0 V 10"
   style="stroke-width:20;stroke-linecap:round;stroke-linejoin:round;stroke-miterlimit:10;stroke-dasharray:none;stroke-opacity:1"
   transform="translate(136,286)"
   fill="none"
   stroke="#ffffff"
   stroke-width="20"
   stroke-linecap="round"
   stroke-linejoin="round"
   stroke-miterlimit="10"
   stroke-dasharray="none"
   stroke-opacity=""
   data-original="#000000"
   id="path382" />
      <path
   d="M 0,0 H -120"
   style="stroke-width:20;stroke-linecap:round;stroke-linejoin:round;stroke-miterlimit:10;stroke-dasharray:none;stroke-opacity:1"
   transform="translate(216,50)"
   fill="none"
   stroke="#ffffff"
   stroke-width="20"
   stroke-linecap="round"
   stroke-linejoin="round"
   stroke-miterlimit="10"
   stroke-dasharray="none"
   stroke-opacity=""
   data-original="#000000"
   id="path384" />
      <path
   d="M 0,0 H -103"
   style="stroke-width:20;stroke-linecap:round;stroke-linejoin:round;stroke-miterlimit:10;stroke-dasharray:none;stroke-opacity:1"
   transform="translate(482,256)"
   fill="none"
   stroke="#ffffff"
   stroke-width="20"
   stroke-linecap="round"
   stroke-linejoin="round"
   stroke-miterlimit="10"
   stroke-dasharray="none"
   stroke-opacity=""
   data-original="#000000"
   id="path386" />
      <path
   d="M 0,0 C -22.09,0 -40,-17.91 -40,-40"
   style="stroke-width:20;stroke-linecap:round;stroke-linejoin:round;stroke-miterlimit:10;stroke-dasharray:none;stroke-opacity:1"
   transform="translate(502,462)"
   fill="none"
   stroke="#ffffff"
   stroke-width="20"
   stroke-linecap="round"
   stroke-linejoin="round"
   stroke-miterlimit="10"
   stroke-dasharray="none"
   stroke-opacity=""
   data-original="#000000"
   id="path388" />
      <path
   d="M 0,0 C 22.09,0 40,-17.91 40,-40"
   style="stroke-width:20;stroke-linecap:round;stroke-linejoin:round;stroke-miterlimit:10;stroke-dasharray:none;stroke-opacity:1"
   transform="translate(422,462)"
   fill="none"
   stroke="#ffffff"
   stroke-width="20"
   stroke-linecap="round"
   stroke-linejoin="round"
   stroke-miterlimit="10"
   stroke-dasharray="none"
   stroke-opacity=""
   data-original="#000000"
   id="path390" />
      <path
   d="M 0,0 C -22.09,0 -40,17.91 -40,40"
   style="stroke-width:20;stroke-linecap:round;stroke-linejoin:round;stroke-miterlimit:10;stroke-dasharray:none;stroke-opacity:1"
   transform="translate(502,462)"
   fill="none"
   stroke="#ffffff"
   stroke-width="20"
   stroke-linecap="round"
   stroke-linejoin="round"
   stroke-miterlimit="10"
   stroke-dasharray="none"
   stroke-opacity=""
   data-original="#000000"
   id="path392" />
      <path
   d="M 0,0 C 22.09,0 40,17.91 40,40"
   style="stroke-width:20;stroke-linecap:round;stroke-linejoin:round;stroke-miterlimit:10;stroke-dasharray:none;stroke-opacity:1"
   transform="translate(422,462)"
   fill="none"
   stroke="#ffffff"
   stroke-width="20"
   stroke-linecap="round"
   stroke-linejoin="round"
   stroke-miterlimit="10"
   stroke-dasharray="none"
   stroke-opacity=""
   data-original="#000000"
   id="path394" />
      <path
   d="M 0,0 C -22.09,0 -40,-17.91 -40,-40"
   style="stroke-width:20;stroke-linecap:round;stroke-linejoin:round;stroke-miterlimit:10;stroke-dasharray:none;stroke-opacity:1"
   transform="translate(336,316)"
   fill="none"
   stroke="#ffffff"
   stroke-width="20"
   stroke-linecap="round"
   stroke-linejoin="round"
   stroke-miterlimit="10"
   stroke-dasharray="none"
   stroke-opacity=""
   data-original="#000000"
   id="path396" />
      <path
   d="M 0,0 C 22.09,0 40,-17.91 40,-40"
   style="stroke-width:20;stroke-linecap:round;stroke-linejoin:round;stroke-miterlimit:10;stroke-dasharray:none;stroke-opacity:1"
   transform="translate(256,316)"
   fill="none"
   stroke="#ffffff"
   stroke-width="20"
   stroke-linecap="round"
   stroke-linejoin="round"
   stroke-miterlimit="10"
   stroke-dasharray="none"
   stroke-opacity=""
   data-original="#000000"
   id="path398" />
      <path
   d="M 0,0 C -22.09,0 -40,17.91 -40,40"
   style="stroke-width:20;stroke-linecap:round;stroke-linejoin:round;stroke-miterlimit:10;stroke-dasharray:none;stroke-opacity:1"
   transform="translate(336,316)"
   fill="none"
   stroke="#ffffff"
   stroke-width="20"
   stroke-linecap="round"
   stroke-linejoin="round"
   stroke-miterlimit="10"
   stroke-dasharray="none"
   stroke-opacity=""
   data-original="#000000"
   id="path400" />
      <path
   d="M 0,0 C 22.09,0 40,17.91 40,40"
   style="stroke-width:20;stroke-linecap:round;stroke-linejoin:round;stroke-miterlimit:10;stroke-dasharray:none;stroke-opacity:1"
   transform="translate(256,316)"
   fill="none"
   stroke="#ffffff"
   stroke-width="20"
   stroke-linecap="round"
   stroke-linejoin="round"
   stroke-miterlimit="10"
   stroke-dasharray="none"
   stroke-opacity=""
   data-original="#000000"
   id="path402" />
      <path
   d="M 0,0 V 40"
   style="stroke-width:20;stroke-linecap:round;stroke-linejoin:round;stroke-miterlimit:10;stroke-dasharray:none;stroke-opacity:1"
   transform="translate(482,316)"
   fill="none"
   stroke="#ffffff"
   stroke-width="20"
   stroke-linecap="round"
   stroke-linejoin="round"
   stroke-miterlimit="10"
   stroke-dasharray="none"
   stroke-opacity=""
   data-original="#000000"
   id="path404" />
      <path
   d="M 0,0 H -40"
   style="stroke-width:20;stroke-linecap:round;stroke-linejoin:round;stroke-miterlimit:10;stroke-dasharray:none;stroke-opacity:1"
   transform="translate(502,336)"
   fill="none"
   stroke="#ffffff"
   stroke-width="20"
   stroke-linecap="round"
   stroke-linejoin="round"
   stroke-miterlimit="10"
   stroke-dasharray="none"
   stroke-opacity=""
   data-original="#000000"
   id="path406" />
      <path
   d="m 0,0 c 0,-5.522 -4.478,-10 -10,-10 -5.522,0 -10,4.478 -10,10 0,5.522 4.478,10 10,10 C -4.478,10 0,5.522 0,0"
   style="fill-opacity:1;fill-rule:nonzero;stroke:none"
   transform="translate(206,462)"
   fill="#ffffff"
   data-original="#000000"
   id="path408" />
      <path
   d="m 0,0 c -23.26,5.8 -46,13.24 -46,13.24 v 246 c 0,0 51,20 96,20 16.47,0 32.94,-2.678 47.204,-6.076"
   style="stroke-width:20;stroke-linecap:round;stroke-linejoin:round;stroke-miterlimit:10;stroke-dasharray:none;stroke-opacity:1"
   transform="translate(56,202.76)"
   fill="none"
   stroke="#ffffff"
   stroke-width="20"
   stroke-linecap="round"
   stroke-linejoin="round"
   stroke-miterlimit="10"
   stroke-dasharray="none"
   stroke-opacity=""
   data-original="#000000"
   id="path410" />
      <path
   d="m 0,0 c 14.264,-3.397 30.734,-6.076 47.204,-6.076 45,0 93,20 93,20 v -246 c 0,0 -48,20 -93,20 -10.17,0 -20.35,-1.02 -30,-2.611 -15.34,-2.509 -29.37,-6.439 -40,-9.929"
   style="stroke-width:20;stroke-linecap:round;stroke-linejoin:round;stroke-miterlimit:10;stroke-dasharray:none;stroke-opacity:1"
   transform="translate(238.796,448.076)"
   fill="none"
   stroke="#ffffff"
   stroke-width="20"
   stroke-linecap="round"
   stroke-linejoin="round"
   stroke-miterlimit="10"
   stroke-dasharray="none"
   stroke-opacity=""
   data-original="#000000"
   id="path412" />
      <path
   d="M 0,0 H -43"
   style="stroke-width:20;stroke-linecap:round;stroke-linejoin:round;stroke-miterlimit:10;stroke-dasharray:none;stroke-opacity:1"
   transform="translate(422,296)"
   fill="none"
   stroke="#ffffff"
   stroke-width="20"
   stroke-linecap="round"
   stroke-linejoin="round"
   stroke-miterlimit="10"
   stroke-dasharray="none"
   stroke-opacity=""
   data-original="#000000"
   id="path414" />
    </g>
  </g>
</svg>
