<?xml version="1.0" encoding="UTF-8" standalone="no"?>
<svg
   version="1.1"
   width="31.999998"
   height="31.999697"
   x="0"
   y="0"
   viewBox="0 0 30.000186 29.999716"
   xml:space="preserve"
   
   id="svg20"
   sodipodi:docname="construction.svg"
   inkscape:version="1.2.2 (732a01da63, 2022-12-09)"
   xmlns:inkscape="http://www.inkscape.org/namespaces/inkscape"
   xmlns:sodipodi="http://sodipodi.sourceforge.net/DTD/sodipodi-0.dtd"
   xmlns="http://www.w3.org/2000/svg"
   xmlns:svg="http://www.w3.org/2000/svg"><defs
   id="defs24" /><sodipodi:namedview
   id="namedview22"
   pagecolor="#505050"
   bordercolor="#eeeeee"
   borderopacity="1"
   inkscape:showpageshadow="0"
   inkscape:pageopacity="0"
   inkscape:pagecheckerboard="0"
   inkscape:deskcolor="#505050"
   showgrid="false"
   inkscape:zoom="1.5703125"
   inkscape:cx="256"
   inkscape:cy="211.74129"
   inkscape:window-width="1920"
   inkscape:window-height="991"
   inkscape:window-x="1699"
   inkscape:window-y="-9"
   inkscape:window-maximized="1"
   inkscape:current-layer="svg20" />
  <g
   id="g18"
   transform="matrix(0.0624998,0,0,0.0624998,0,-0.0015)">
    <path
   d="m 136,272 h 16 v 16 h -16 z m 32,0 h 16 v 16 h -16 z m 32,0 h 16 v 16 h -16 z m -64,32 h 16 v 16 h -16 z m 32,0 h 16 v 16 h -16 z m 32,0 h 16 v 16 h -16 z m 32,0 h 16 v 16 h -16 z m 32,0 h 16 v 16 h -16 z m -128,32 h 16 v 16 h -16 z m 32,0 h 16 v 16 h -16 z m 32,0 h 16 v 16 h -16 z m 32,0 h 16 v 16 h -16 z m 32,0 h 16 v 16 h -16 z m -128,32 h 16 v 16 h -16 z m 32,0 h 16 v 16 h -16 z m 32,0 h 16 v 16 h -16 z m 32,0 h 16 v 16 h -16 z m 32,0 h 16 v 16 h -16 z m -128,32 h 16 v 16 h -16 z m 32,0 h 16 v 16 h -16 z m 32,0 h 16 v 16 h -16 z m 32,0 h 16 v 16 h -16 z m 32,0 h 16 v 16 h -16 z m -128,32 h 16 v 16 h -16 z m 32,0 h 16 v 16 h -16 z m 32,0 h 16 v 16 h -16 z m 32,0 h 16 v 16 h -16 z m 32,0 h 16 v 16 h -16 z m 0,0"
   fill="#081e7f"
   data-original="#000000"
   
   opacity="1"
   id="path14" />
    <path
   d="M 472,24 H 416 V 8 a 8,8 0 0 0 -8,-8 h -80 a 8,8 0 0 0 -8,8 V 24 H 8 a 8,8 0 0 0 -8,8 v 32 c 0,4.422 3.582,8 8,8 h 24 v 152 c 0,4.422 3.582,8 8,8 a 8,8 0 1 1 -8,8 H 16 c 0.023,5.855 2.2,11.5 6.121,15.852 l -20.52,27.351 0.102,0.078 A 7.835,7.835 0 0 0 0,288 v 32 c 0,2.125 0.844,4.156 2.344,5.656 l 16,16 A 8.001,8.001 0 0 0 24,344 h 32 a 8.001,8.001 0 0 0 5.656,-2.344 l 16,-16 A 7.994,7.994 0 0 0 80,320 v -32 a 7.835,7.835 0 0 0 -1.703,-4.719 l 0.101,-0.078 -20.52,-27.351 A 23.849,23.849 0 0 0 63.25,233.961 23.85,23.85 0 0 0 48,217.37 V 72 h 272 v 8 c 0,4.422 3.582,8 8,8 h 16 V 464 H 312 V 144 h -16 v 32 h -48 v -16 h -16 v 16 h -48 v -8 h -16 v 8 H 120 V 152 H 224 V 136 H 120 V 104 H 104 V 464 H 91.312 L 53.656,426.348 a 7.997,7.997 0 0 0 -11.312,0 L 4.687,464 H 0 v 16 h 480 v -16 h -6.238 a 23.778,23.778 0 0 0 5.27,-22.79 23.78,23.78 0 0 0 -16.794,-16.28 23.997,23.997 0 0 0 -7.675,-28.098 23.993,23.993 0 0 0 -29.125,0 23.997,23.997 0 0 0 -7.676,28.098 23.78,23.78 0 0 0 -16.793,16.28 23.778,23.778 0 0 0 5.27,22.79 H 392 V 88 h 16 c 4.418,0 8,-3.578 8,-8 v -8 h 56 c 4.418,0 8,-3.578 8,-8 V 32 a 8,8 0 0 0 -8,-8 z M 44,264 56,280 H 24 L 36,264 Z M 64,316.691 52.687,328 H 27.314 L 16,316.691 V 296 H 64 Z M 437.602,40 416,54.402 V 40 Z M 336,16 h 32 V 48 H 336 Z M 120,41.602 141.602,56 H 98.398 Z M 72,54.402 50.398,40 H 93.602 Z M 146.398,40 h 43.204 L 168,54.402 Z M 216,41.602 237.602,56 H 194.398 Z M 242.398,40 h 43.204 L 264,54.402 Z M 16,40 h 5.602 l 24,16 H 16 Z m 274.398,16 24,-16 H 320 V 56 Z M 376,437.602 361.602,416 376,394.402 Z m 0,-192 L 361.602,224 376,202.402 Z m -16,4.8 L 374.398,272 360,293.602 Z m 0,-52.8 v -43.2 L 374.398,176 Z m 0,148.8 L 374.398,368 360,389.602 Z M 376,341.555 361.602,320 376,298.402 Z M 361.602,128 376,106.402 v 43.2 z M 360,101.602 V 88 h 9.055 z M 296,192 v 80 h -48 v -80 z m -64,0 v 68.8 L 213.602,242.617 A 8.02,8.02 0 0 0 208,240.305 H 184 V 192 Z m -64,0 v 13.336 H 120 V 192 Z M 48,443.313 68.688,464 H 27.312 Z M 120,464 V 221.336 h 48 v 27 c 0,4.422 3.582,8 8,8 h 28.71 l 29.688,29.355 A 8,8 0 0 0 240,288 h 56 V 464 Z M 360,442.402 374.398,464 H 360 Z M 456,456 a 8,8 0 1 1 0,-16 8,8 0 0 1 0,16 z m -16,-48 a 8,8 0 1 1 0,16 8,8 0 0 1 0,-16 z m -16,32 a 8,8 0 1 1 0,16 8,8 0 0 1 0,-16 z M 400,72 h -64 v -8 h 40 c 4.418,0 8,-3.578 8,-8 V 16 h 16 z M 442.398,56 464,41.602 V 56 Z m 0,0"
   fill="#081e7f"
   data-original="#000000"
   
   opacity="1"
   id="path16" />
  </g>
</svg>
