<?xml version="1.0" encoding="UTF-8" standalone="no"?>
<svg
   version="1.1"
   width="32"
   height="31.998966"
   x="0"
   y="0"
   viewBox="0 0 3.8750625 3.8748748"
   xml:space="preserve"
   
   id="svg212"
   sodipodi:docname="day-care-center.svg"
   inkscape:version="1.2.2 (732a01da63, 2022-12-09)"
   xmlns:inkscape="http://www.inkscape.org/namespaces/inkscape"
   xmlns:sodipodi="http://sodipodi.sourceforge.net/DTD/sodipodi-0.dtd"
   xmlns="http://www.w3.org/2000/svg"
   xmlns:svg="http://www.w3.org/2000/svg"><defs
   id="defs216" /><sodipodi:namedview
   id="namedview214"
   pagecolor="#505050"
   bordercolor="#eeeeee"
   borderopacity="1"
   inkscape:showpageshadow="0"
   inkscape:pageopacity="0"
   inkscape:pagecheckerboard="0"
   inkscape:deskcolor="#505050"
   showgrid="false"
   inkscape:zoom="1.5703125"
   inkscape:cx="256"
   inkscape:cy="256.31841"
   inkscape:window-width="1920"
   inkscape:window-height="991"
   inkscape:window-x="1699"
   inkscape:window-y="-9"
   inkscape:window-maximized="1"
   inkscape:current-layer="svg212" />
  <g
   id="g210"
   transform="matrix(0.06249899,0,0,0.06249899,6.25159e-5,-5e-4)">
    <path
   d="m 48.001,36 a 2.006,2.006 0 0 1 -1.887,-1.333 l -1.885,0.667 C 44.793,36.928 46.31,38 48.001,38 c 1.691,0 3.208,-1.072 3.771,-2.667 L 49.887,34.666 A 2.003,2.003 0 0 1 48.001,36 Z"
   fill="#091f81"
   data-original="#000000"
   opacity="1"
   
   id="path204" />
    <path
   d="m 57.941,34 h 0.06 c 2.206,0 4,-1.794 4,-4 0,-0.891 -0.303,-1.707 -0.798,-2.373 0.519,-1.383 0.798,-2.828 0.798,-4.314 C 62.001,16.523 56.478,11 49.688,11 H 46.125 A 6.27,6.27 0 0 0 40.22,15.141 L 40.211,15.144 24.377,5.659 C 22.947,4.8 21.07,4.798 19.635,5.647 l -7.634,4.527 V 6 c 1.103,0 2,-0.897 2,-2 V 2 c 0,-1.103 -0.897,-2 -2,-2 h -10 c -1.103,0 -2,0.897 -2,2 v 2 c 0,1.103 0.897,2 2,2 v 10.106 l -0.503,0.298 a 2.983,2.983 0 0 0 -1.396,1.824 c -0.207,0.774 -0.1,1.583 0.303,2.276 A 3.013,3.013 0 0 0 3.003,22 c 0.344,0 0.676,-0.08 0.998,-0.195 V 46.78 c -0.609,0.549 -1,1.337 -1,2.22 v 11 h -3 v 2 h 62 v -2 h -3 V 49 c 0,-1.654 -1.346,-3 -3,-3 H 55.743 A 8.016,8.016 0 0 0 52.39,41.332 C 55.381,40.111 57.571,37.328 57.941,34 Z m 0.06,-2 v -4 c 1.103,0 2,0.897 2,2 0,1.103 -0.897,2 -2,2 z M 41.813,16.878 41.971,16.242 A 4.276,4.276 0 0 1 46.124,13 h 3.563 C 55.374,13 60,17.626 60,23.313 a 10.24,10.24 0 0 1 -0.451,2.999 c -0.477,-0.201 -1,-0.313 -1.549,-0.313 v -3 c 0,-2.206 -1.794,-4 -4,-4 v 2 c 1.103,0 2,0.897 2,2 h -2 a 5.114,5.114 0 0 1 -5,-4.1 l -0.02,-0.097 -1.941,0.491 c 0.292,1.462 1.045,2.728 2.065,3.707 H 48 a 5.114,5.114 0 0 1 -5,-4.1 l -0.02,-0.097 -1.941,0.491 c 0.149,0.745 0.427,1.435 0.785,2.071 a 5.017,5.017 0 0 0 -3.805,4.636 H 38 A 3.94,3.94 0 0 0 36.174,26.463 6.22,6.22 0 0 1 36,25.027 v -1.943 a 6.16,6.16 0 0 1 5.164,-6.096 z M 38.001,32 c -1.103,0 -2,-0.897 -2,-2 0,-1.103 0.897,-2 2,-2 z m -18,-15 c 0,-1.103 0.897,-2 2,-2 1.103,0 2,0.897 2,2 0,1.103 -0.897,2 -2,2 -1.103,0 -2,-0.897 -2,-2 z m 2,-4 c -2.206,0 -4,1.794 -4,4 0,1.2 0.542,2.266 1.382,3 H 7.261 L 22,11.467 35.042,19.08 A 8.151,8.151 0 0 0 34.606,20 H 24.62 a 3.975,3.975 0 0 0 1.382,-3 4.006,4.006 0 0 0 -4.001,-4 z m -20,-11 h 10 l 0.001,2 H 2.001 Z m 2,4 h 6 v 5.361 l -6,3.558 z M 2.136,19.501 A 0.995,0.995 0 0 1 2.509,18.129 L 20.655,7.368 a 2.68,2.68 0 0 1 2.694,0.006 l 14.569,8.728 A 8.148,8.148 0 0 0 36.233,17.46 L 22.003,9.154 3.501,19.866 C 3.039,20.135 2.403,19.959 2.136,19.501 Z M 6.001,22 h 28.078 a 8.228,8.228 0 0 0 -0.078,1.083 v 1.943 c 0,1.006 0.201,2.014 0.566,2.957 a 3.955,3.955 0 0 0 -0.566,2.018 c 0,2.206 1.794,4 4,4 h 0.059 a 8.925,8.925 0 0 0 2.577,5.364 8.987,8.987 0 0 0 2.949,1.967 7.958,7.958 0 0 0 -3.468,5.354 2.984,2.984 0 0 0 -1.116,2.316 v 1 h -4 v -1 c 0,-1.654 -1.346,-3 -3,-3 h -2 c -1.654,0 -3,1.346 -3,3 v 1 h -4 v -1 c 0,-1.654 -1.346,-3 -3,-3 V 34 h -12 v 12 h -2 V 22 Z m 12,24 c -1.654,0 -3,1.346 -3,3 v 1 h -4 v -1 c 0,-0.883 -0.391,-1.67 -1,-2.22 V 36 h 8 z m -3,8 h -4 v -2 h 4 z m -4,2 h 4 v 4 h -4 z m 6,-7 c 0,-0.551 0.448,-1 1,-1 h 2 c 0.552,0 1,0.449 1,1 v 11 h -4 z m 6,3 h 4 v 2 h -4 z m 0,4 h 4 v 4 h -4 z m 10,4 h -4 V 49 c 0,-0.551 0.448,-1 1,-1 h 2 c 0.552,0 1,0.449 1,1 z m 2,-8 h 4 v 2 h -4 z m 0,4 h 4 v 4 h -4 z m 6,-7 c 0,-0.551 0.448,-1 1,-1 h 2 c 0.552,0 1,0.449 1,1 v 11 h -4 z m 6,3 h 4 v 2 h -4 z m 0,4 h 4 v 4 h -4 z m 4,-7 v 1 h -4 v -1 c 0,-1.654 -1.346,-3 -3,-3 H 42.36 a 5.976,5.976 0 0 1 5.641,-4 c 2.579,0 4.842,1.672 5.665,4.034 A 2.993,2.993 0 0 0 51.001,49 Z m -46,0 c 0,-0.551 0.448,-1 1,-1 h 2 c 0.552,0 1,0.449 1,1 v 11 h -4 z m 52,0 v 11 h -4 V 49 c 0,-0.551 0.448,-1 1,-1 h 2 c 0.552,0 1,0.449 1,1 z M 49,40 h -1.999 c -1.87,0 -3.628,-0.728 -4.95,-2.05 -1.322,-1.322 -2.05,-3.08 -2.05,-4.95 v -6.784 c 0,-1.397 0.99,-2.629 2.355,-2.93 l 0.85,-0.187 C 44.485,24.275 46.17,25 48.001,25 h 8 L 56,33 c 0,3.86 -3.14,7 -7,7 z"
   fill="#091f81"
   data-original="#000000"
   opacity="1"
   
   id="path206" />
    <path
   d="m 45.001,30 v 1 h 2 v -1 c 0,-1.654 -1.346,-3 -3,-3 -1.654,0 -3,1.346 -3,3 v 1 h 2 v -1 a 1.001,1.001 0 0 1 2,0 z m 7,-3 c -1.654,0 -3,1.346 -3,3 v 1 h 2 v -1 a 1.001,1.001 0 0 1 2,0 v 1 h 2 v -1 c 0,-1.654 -1.345,-3 -3,-3 z m -32,-3 h -12 v 8 h 12 z m -2,6 h -8 v -4 h 8 z m 14,-4 h -10 v 8 h 10 z m -2,6 h -6 v -4 h 6 z m 2,4 h -10 v 8 h 10 z m -2,6 h -6 v -4 h 6 z"
   fill="#091f81"
   data-original="#000000"
   opacity="1"
   
   id="path208" />
  </g>
</svg>
