<?xml version="1.0" encoding="UTF-8" standalone="no"?>
<svg
   version="1.1"
   width="40.296627"
   height="40"
   x="0"
   y="0"
   viewBox="0 0 33.818472 33.515625"
   xml:space="preserve"
   
   id="svg27"
   sodipodi:docname="discount-hand.svg"
   inkscape:version="1.2.2 (732a01da63, 2022-12-09)"
   xmlns:inkscape="http://www.inkscape.org/namespaces/inkscape"
   xmlns:sodipodi="http://sodipodi.sourceforge.net/DTD/sodipodi-0.dtd"
   xmlns="http://www.w3.org/2000/svg"
   xmlns:svg="http://www.w3.org/2000/svg"><defs
     id="defs31" /><sodipodi:namedview
     id="namedview29"
     pagecolor="#505050"
     bordercolor="#eeeeee"
     borderopacity="1"
     inkscape:showpageshadow="0"
     inkscape:pageopacity="0"
     inkscape:pagecheckerboard="0"
     inkscape:deskcolor="#505050"
     showgrid="false"
     inkscape:zoom="1.5703125"
     inkscape:cx="256"
     inkscape:cy="255.68159"
     inkscape:window-width="1920"
     inkscape:window-height="991"
     inkscape:window-x="1699"
     inkscape:window-y="-9"
     inkscape:window-maximized="1"
     inkscape:current-layer="svg27" /><g
     id="g25"
     style="fill:#0000ff"
     transform="matrix(0.07870463,0,0,0.07870463,-7.2290916e-5,-0.37219484)"><path
       d="m 127.273,185.078 -0.015,0.274 c -1.059,18.543 9.328,35.914 26.469,44.242 l 0.175,0.086 a 31.181,31.181 0 0 1 14.121,13.582 l 0.07,0.129 c 8.637,16.445 26.5,26.414 45.544,25.414 l 0.289,-0.016 a 33.163,33.163 0 0 1 19.605,5.098 49.709,49.709 0 0 0 52.719,0 33.163,33.163 0 0 1 19.605,-5.098 l 0.29,0.016 c 19.011,1.007 36.898,-8.97 45.554,-25.442 l 0.043,-0.09 a 31.239,31.239 0 0 1 14.164,-13.609 l 0.14,-0.07 c 17.142,-8.332 27.532,-25.7 26.47,-44.246 L 392.5,185.09 a 29.673,29.673 0 0 1 5.164,-18.39 c 10.66,-15.548 10.66,-36.048 0.004,-51.598 A 29.671,29.671 0 0 1 392.5,96.719 l 0.016,-0.274 c 1.062,-18.547 -9.329,-35.914 -26.485,-44.25 l -0.156,-0.078 A 31.153,31.153 0 0 1 351.773,38.582 l -0.09,-0.176 c -8.64,-16.445 -26.527,-26.41 -45.538,-25.414 l -0.293,0.016 A 33.14,33.14 0 0 1 286.254,7.91 h -0.008 a 49.709,49.709 0 0 0 -52.719,0 33.188,33.188 0 0 1 -19.605,5.094 l -0.29,-0.016 c -19.015,-1.008 -36.898,8.969 -45.534,25.41 l -0.067,0.122 a 31.2,31.2 0 0 1 -14.136,13.601 l -0.165,0.078 c -17.14,8.328 -27.53,25.7 -26.468,44.246 l 0.015,0.258 a 29.654,29.654 0 0 1 -5.164,18.387 c -10.66,15.55 -10.66,36.055 0,51.601 a 29.651,29.651 0 0 1 5.16,18.387 z m 8.008,-60.902 A 45.74,45.74 0 0 0 143.25,95.8 l -0.016,-0.274 a 30.414,30.414 0 0 1 17.473,-28.925 l 0.137,-0.067 A 47.106,47.106 0 0 0 182.18,45.995 l 0.078,-0.148 c 5.738,-10.93 17.758,-17.555 30.523,-16.875 l 0.281,0.011 a 49.013,49.013 0 0 0 28.993,-7.535 33.623,33.623 0 0 1 35.664,0 49.124,49.124 0 0 0 28.988,7.54 l 0.281,-0.016 c 12.828,-0.672 24.79,5.945 30.512,16.843 l 0.105,0.2 a 47.1,47.1 0 0 0 21.317,20.511 l 0.133,0.067 c 11.312,5.5 18.18,16.855 17.488,28.937 l -0.016,0.285 a 45.731,45.731 0 0 0 7.973,28.371 29.546,29.546 0 0 1 -0.008,33.426 45.78,45.78 0 0 0 -7.965,28.38 l 0.016,0.269 c 0.691,12.082 -6.176,23.441 -17.492,28.945 l -0.117,0.055 a 47.158,47.158 0 0 0 -21.356,20.57 l -0.058,0.117 c -5.743,10.93 -17.743,17.559 -30.528,16.875 l -0.277,-0.015 a 49.104,49.104 0 0 0 -29,7.539 33.626,33.626 0 0 1 -35.656,0 49.026,49.026 0 0 0 -26.282,-7.614 c -0.902,0 -1.808,0.024 -2.715,0.075 l -0.28,0.011 a 32.404,32.404 0 0 1 -30.536,-16.89 l -0.082,-0.153 a 47.049,47.049 0 0 0 -21.3,-20.504 l -0.15,-0.074 c -11.316,-5.5 -18.183,-16.86 -17.487,-28.937 l 0.015,-0.285 a 45.774,45.774 0 0 0 -7.972,-28.372 29.547,29.547 0 0 1 0.011,-33.421 z m 0,0"
       fill="#0d62d8"
       data-original="#000000"
       
       id="path21"
       style="fill:#0000ff" /><path
       d="m 208.27,223.602 c 3.746,2.34 8.68,1.195 11.02,-2.551 l 94.769,-151.82 a 8.0011305,8.0011305 0 1 0 -13.575,-8.473 l -94.765,151.82 a 7.999,7.999 0 0 0 2.55,11.024 z m 8.492,-82.309 c 19.48,0 35.332,-18.074 35.332,-40.29 0,-22.216 -15.852,-40.283 -35.332,-40.283 -19.48,0 -35.328,18.07 -35.328,40.285 0,22.215 15.847,40.289 35.328,40.289 z m 0,-64.574 c 10.66,0 19.332,10.894 19.332,24.285 0,13.391 -8.672,24.289 -19.332,24.289 -10.657,0 -19.328,-10.902 -19.328,-24.29 0,-13.386 8.671,-24.284 19.328,-24.284 z M 267.684,180.8 c 0,22.216 15.847,40.286 35.328,40.286 19.481,0 35.332,-18.074 35.332,-40.285 0,-22.207 -15.848,-40.285 -35.328,-40.285 -19.485,0 -35.332,18.066 -35.332,40.285 z m 54.66,0 c 0,13.391 -8.672,24.286 -19.332,24.286 -10.657,0 -19.328,-10.895 -19.328,-24.285 0,-13.39 8.671,-24.285 19.328,-24.285 10.66,0 19.332,10.886 19.332,24.285 z m 106.308,132.845 c -10.593,-18.801 -34.086,-25.961 -53.363,-16.266 l -62.668,29.61 a 51.047,51.047 0 0 0 -43.516,-26.848 l -57.851,-1.594 a 61.155,61.155 0 0 1 -26.293,-6.79 l -5.887,-3.05 a 103.833,103.833 0 0 0 -96.176,0.102 l 0.368,-13.336 a 8,8 0 0 0 -7.778,-8.22 l -63.437,-1.745 a 7.997,7.997 0 0 0 -8.215,7.777 L 0.004,412.5 a 8,8 0 0 0 7.777,8.219 l 63.438,1.746 h 0.222 a 8.007,8.007 0 0 0 7.997,-7.781 l 0.18,-6.66 16.48,-8.825 a 28.279,28.279 0 0 1 21.101,-2.308 l 98.41,27.62 c 0.172,0.052 0.344,0.09 0.52,0.13 a 105.358,105.358 0 0 0 21.633,2.23 106.739,106.739 0 0 0 44.59,-9.73 c 0.343,-0.157 0.675,-0.336 0.992,-0.54 l 142.687,-92.3 a 7.996,7.996 0 0 0 2.621,-10.656 z M 16.22,404.94 19.61,281.726 67.056,283.03 63.66,406.25 Z m 258.922,-2.097 a 90.674,90.674 0 0 1 -55.47,6.187 l -98.148,-27.543 a 44.22,44.22 0 0 0 -32.976,3.606 l -8.422,4.508 2.258,-81.926 c 26.683,-17.75 60.91,-19.574 89.332,-4.766 l 5.887,3.05 a 77.228,77.228 0 0 0 33.214,8.58 l 57.852,1.593 c 16.25,0.465 30.05,12.035 33.348,27.957 l -86.172,-2.371 a 7.997,7.997 0 0 0 -8.215,7.777 8,8 0 0 0 7.777,8.219 l 95.098,2.617 h 0.226 a 8.006,8.006 0 0 0 7.993,-7.781 51.049,51.049 0 0 0 -0.774,-10.38 l 64.266,-30.37 0.187,-0.09 a 24.435,24.435 0 0 1 27.641,3.867 z m 0,0"
       fill="#0d62d8"
       data-original="#000000"
       
       id="path23"
       style="fill:#0000ff" /></g></svg>
