<?xml version="1.0" encoding="UTF-8" standalone="no"?>
<svg
   version="1.1"
   width="27.710022"
   height="31.999998"
   x="0"
   y="0"
   viewBox="0 0 27.710022 31.999998"
   xml:space="preserve"
   
   id="svg479"
   sodipodi:docname="disinfect-icon.svg"
   inkscape:version="1.2.2 (732a01da63, 2022-12-09)"
   xmlns:inkscape="http://www.inkscape.org/namespaces/inkscape"
   xmlns:sodipodi="http://sodipodi.sourceforge.net/DTD/sodipodi-0.dtd"
   xmlns="http://www.w3.org/2000/svg"
   xmlns:svg="http://www.w3.org/2000/svg"><defs
   id="defs483" /><sodipodi:namedview
   id="namedview481"
   pagecolor="#505050"
   bordercolor="#eeeeee"
   borderopacity="1"
   inkscape:showpageshadow="0"
   inkscape:pageopacity="0"
   inkscape:pagecheckerboard="0"
   inkscape:deskcolor="#505050"
   showgrid="false"
   inkscape:zoom="1.5703125"
   inkscape:cx="220.33831"
   inkscape:cy="252.49751"
   inkscape:window-width="1920"
   inkscape:window-height="991"
   inkscape:window-x="1699"
   inkscape:window-y="-9"
   inkscape:window-maximized="1"
   inkscape:current-layer="svg479" />
  <g
   id="g477"
   transform="matrix(0.06349189,0,0,0.06349189,-2.262216,-0.25403468)">
    <g
   data-name="26-shield"
   id="g475">
      <path
   d="M 470.158,185.55 C 466.777,128.99 459.958,78.87 459.889,78.371 a 12.000082,12.000082 0 1 0 -23.778,3.258 c 7.417,54.108 22.058,204.368 1.022,249.281 a 12,12 0 1 0 21.734,10.18 c 12.116,-25.869 15.915,-78.2 11.291,-155.54 z M 320.227,438.242 c -27.948,20 -52.966,36.318 -64.248,43.553 C 206.663,450.372 94.466,372.754 74.867,330.91 c -4.379,-9.349 -7.5,-24.145 -9.261,-43.974 a 12,12 0 1 0 -23.9,2.128 c 2.043,22.947 5.783,39.964 11.432,52.026 11.849,25.3 48.753,60.891 109.687,105.789 44.542,32.82 86.4,59.037 86.821,59.3 a 12,12 0 0 0 12.718,0 c 0.329,-0.2 33.381,-20.9 71.834,-48.417 A 12,12 0 1 0 320.232,438.245 Z M 52.83,203.982 Q 53.168,204 53.501,204 A 12,12 0 0 0 65.473,192.661 C 67.84,149.726 72.384,109.707 74.6,91.67 145.429,87.38 232.485,42.505 256.006,29.715 c 7.951,4.308 23.312,12.349 43.019,21.319 A 12.000039,12.000039 0 1 0 308.967,29.19 C 281.352,16.622 262.139,5.69 261.95,5.581 a 12.005,12.005 0 0 0 -11.906,0 C 248.955,6.2 139.842,68 64,68 A 12,12 0 0 0 52.111,78.371 c -0.073,0.533 -7.353,54.051 -10.6,112.968 a 12,12 0 0 0 11.319,12.643 z"
   fill="#ffffff"
   data-original="#000000"
   
   id="path471" />
      <path
   d="M 261.407,81.025 A 12,12 0 0 0 250.593,59.6 746.141,746.141 0 0 1 203.97,81.179 c -36.366,15.312 -69.639,25.709 -98.892,30.9 a 12,12 0 0 0 -9.838,10.566 c -0.708,6.767 -1.379,13.58 -1.993,20.251 a 12,12 0 0 0 10.847,13.051 q 0.563,0.053 1.116,0.052 a 12,12 0 0 0 11.935,-10.9 c 0.338,-3.669 0.693,-7.38 1.063,-11.1 28.742,-5.908 60.674,-16.216 95.076,-30.7 15.999,-6.738 32.19,-14.232 48.123,-22.274 z M 256,424.345 c -13.729,-9.224 -32.091,-21.874 -50.929,-35.768 -75.03,-55.342 -86.307,-77.156 -86.736,-78.027 A 12.000656,12.000656 0 1 0 96.6,320.731 c 2.966,6.332 18.526,31.327 94.223,87.16 22.464,16.569 44.23,31.377 58.534,40.881 a 12,12 0 0 0 13.282,0 1586.87,1586.87 0 0 0 33.607,-22.952 12.001357,12.001357 0 0 0 -13.8,-19.639 A 1513.686,1513.686 0 0 1 256,424.345 Z M 418.753,142.9 a 12.000521,12.000521 0 0 0 -23.9,2.2 c 1.451,15.742 2.617,30.988 3.466,45.316 5.685,95.838 -4.241,119.209 -4.655,120.134 a 12.000897,12.000897 0 1 0 21.736,10.18 c 3.058,-6.53 12.6,-35.337 6.878,-131.73 -0.864,-14.591 -2.05,-30.1 -3.525,-46.1 z M 300,320 v -36 h 36 a 12,12 0 0 0 12,-12 v -64 a 12,12 0 0 0 -12,-12 h -36 v -36 a 12,12 0 0 0 -12,-12 h -64 a 12,12 0 0 0 -12,12 v 36 h -36 a 12,12 0 0 0 -12,12 v 64 a 12,12 0 0 0 12,12 h 36 v 36 a 12,12 0 0 0 12,12 h 64 a 12,12 0 0 0 12,-12 z m -24,-48 v 36 h -40 v -36 a 12,12 0 0 0 -12,-12 h -36 v -40 h 36 a 12,12 0 0 0 12,-12 v -36 h 40 v 36 a 12,12 0 0 0 12,12 h 36 v 40 h -36 a 12,12 0 0 0 -12,12 z M 292,96 a 12,12 0 0 0 12,12 36.04,36.04 0 0 1 36,36 12,12 0 0 0 24,0 36.04,36.04 0 0 1 36,-36 h 0.37 a 12,12 0 0 0 0,-24 36.04,36.04 0 0 1 -36,-36 12,12 0 0 0 -12,-12 H 352 A 12,12 0 0 0 340,48 36.04,36.04 0 0 1 304,84 12,12 0 0 0 292,96 Z M 352.185,83.715 A 60.477,60.477 0 0 0 364.223,95.861 60.51,60.51 0 0 0 352,108.038 60.488,60.488 0 0 0 339.962,96 60.5,60.5 0 0 0 352.185,83.715 Z M 400.37,356 a 36.04,36.04 0 0 1 -36,-36 12,12 0 0 0 -12,-12 H 352 a 12,12 0 0 0 -12,12 36.04,36.04 0 0 1 -36,36 12,12 0 0 0 0,24 36.04,36.04 0 0 1 36,36 12,12 0 0 0 24,0 36.04,36.04 0 0 1 36,-36 h 0.37 a 12,12 0 0 0 0,-24 z M 352,380.038 A 60.488,60.488 0 0 0 339.962,368 60.5,60.5 0 0 0 352.185,355.715 60.477,60.477 0 0 0 364.223,367.861 60.51,60.51 0 0 0 352,380.038 Z M 83.63,288 a 12,12 0 0 0 24,0 36.041,36.041 0 0 1 36,-36 H 144 a 12,12 0 0 0 0,-24 36.04,36.04 0 0 1 -36,-36 12,12 0 0 0 -12,-12 h -0.185 a 12,12 0 0 0 -12.185,12 36.04,36.04 0 0 1 -36,36 12,12 0 1 0 0,24 36.04,36.04 0 0 1 36,36 z M 95.815,227.715 A 60.456,60.456 0 0 0 107.854,239.861 60.489,60.489 0 0 0 95.63,252.038 60.483,60.483 0 0 0 83.593,240 60.525,60.525 0 0 0 95.815,227.715 Z"
   fill="#ffffff"
   data-original="#000000"
   
   id="path473" />
    </g>
  </g>
</svg>
