<?xml version="1.0" encoding="UTF-8" standalone="no"?>
<svg
   version="1.1"
   width="26.780817"
   height="32"
   x="0"
   y="0"
   viewBox="0 0 2.6153142 3.75"
   xml:space="preserve"
   id="svg514"
   sodipodi:docname="dispenser-icon.svg"
   inkscape:version="1.2.2 (732a01da63, 2022-12-09)"
   xmlns:inkscape="http://www.inkscape.org/namespaces/inkscape"
   xmlns:sodipodi="http://sodipodi.sourceforge.net/DTD/sodipodi-0.dtd"
   xmlns="http://www.w3.org/2000/svg"
   xmlns:svg="http://www.w3.org/2000/svg"><defs
   id="defs518" /><sodipodi:namedview
   id="namedview516"
   pagecolor="#505050"
   bordercolor="#eeeeee"
   borderopacity="1"
   inkscape:showpageshadow="0"
   inkscape:pageopacity="0"
   inkscape:pagecheckerboard="0"
   inkscape:deskcolor="#505050"
   showgrid="false"
   inkscape:zoom="1.5703125"
   inkscape:cx="114.62687"
   inkscape:cy="204.0995"
   inkscape:window-width="1920"
   inkscape:window-height="991"
   inkscape:window-x="1699"
   inkscape:window-y="-9"
   inkscape:window-maximized="1"
   inkscape:current-layer="svg514" />
  <g
   id="g512"
   transform="matrix(0.06276754,0,0,0.06276754,-0.37313433,-0.14925373)">
    <g
   fill="#000000"
   fill-rule="nonzero"
   id="g510">
      <path
   d="M 41.446,0.117 A 0.977,0.977 0 0 0 41,0 H 9 A 0.977,0.977 0 0 0 8.554,0.117 10.006,10.006 0 0 0 0,10 v 26 a 2,2 0 0 0 2,2 h 2 v 19 a 2,2 0 0 0 3.2,1.6 l 1.807,-1.354 2.807,2.1 c 0.712,0.53 1.688,0.53 2.4,0 l 2.8,-2.1 2.8,2.1 c 0.712,0.53 1.688,0.53 2.4,0 l 2.8,-2.1 2.8,2.1 a 2.007,2.007 0 0 0 2.4,0 l 2.8,-2.1 2.8,2.1 a 2.015,2.015 0 0 0 2.4,0 l 2.8,-2.1 L 42.8,58.6 A 2,2 0 0 0 46,57 V 38 h 2 a 2,2 0 0 0 2,-2 V 10 A 10.006,10.006 0 0 0 41.446,0.117 Z M 44,57 42.2,55.652 a 2.012,2.012 0 0 0 -2.4,0 l -2.8,2.1 -2.8,-2.1 a 2.012,2.012 0 0 0 -2.4,0 l -2.8,2.1 -2.8,-2.1 a 2.013,2.013 0 0 0 -2.4,0 l -2.8,2.1 -2.8,-2.1 a 2.012,2.012 0 0 0 -2.4,0 l -2.8,2.1 -2.807,-2.1 a 2.008,2.008 0 0 0 -2.4,0 L 6,57 V 38 h 4 v 8 a 1,1 0 0 0 2,0 v -8 h 4 v 4 a 1,1 0 0 0 2,0 v -4 h 14 v 4 a 1,1 0 0 0 2,0 v -4 h 4 v 8 a 1,1 0 0 0 2,0 v -8 h 4 z M 48,36 H 2 V 10 A 8.008,8.008 0 0 1 8,2.263 V 29 a 1,1 0 0 0 2,0 V 2 h 30 v 27 a 1,1 0 0 0 2,0 V 2.263 A 8.008,8.008 0 0 1 48,10 Z"
   fill="#ffffff"
   data-original="#000000"
   id="path506" />
      <path
   d="M 28.293,47.293 26,49.586 V 41 a 1,1 0 0 0 -2,0 v 8.586 l -2.293,-2.293 a 1,1 0 0 0 -1.414,1.414 l 4,4 a 1,1 0 0 0 1.414,0 l 4,-4 A 1,1 0 0 0 28.293,47.293 Z M 15,6 a 1,1 0 0 0 0,-2 h -2 a 1,1 0 0 0 0,2 z m 4,0 H 31 A 1,1 0 0 0 31,4 H 19 a 1,1 0 0 0 0,2 z m 6,16 c -5.963,0 -12,1.717 -12,5 0,3.283 6.037,5 12,5 5.963,0 12,-1.717 12,-5 0,-3.283 -6.037,-5 -12,-5 z m 0,8 c -6.012,0 -10,-1.806 -10,-3 0,-1.194 3.988,-3 10,-3 6.012,0 10,1.806 10,3 0,1.194 -3.988,3 -10,3 z"
   fill="#ffffff"
   data-original="#000000"
   id="path508" />
    </g>
  </g>
</svg>
