<?xml version="1.0" encoding="UTF-8" standalone="no"?>
{/* Generator: Adobe Illustrator 27.0.1, SVG Export Plug-In . SVG Version: 6.00 Build 0)  */}

<svg
   version="1.1"
   id="Capa_1"
   x="0px"
   y="0px"
   viewBox="0 0 96 85.20816"
   xml:space="preserve"
   width="12"
   height="10.65102"
   sodipodi:docname="eco.svg"
   inkscape:version="1.2.2 (732a01da63, 2022-12-09)"
   xmlns:inkscape="http://www.inkscape.org/namespaces/inkscape"
   xmlns:sodipodi="http://sodipodi.sourceforge.net/DTD/sodipodi-0.dtd"
   xmlns="http://www.w3.org/2000/svg"
   xmlns:svg="http://www.w3.org/2000/svg"><defs
   id="defs476" /><sodipodi:namedview
   id="namedview474"
   pagecolor="#505050"
   bordercolor="#eeeeee"
   borderopacity="1"
   inkscape:showpageshadow="0"
   inkscape:pageopacity="0"
   inkscape:pagecheckerboard="0"
   inkscape:deskcolor="#505050"
   showgrid="false"
   inkscape:zoom="12.5625"
   inkscape:cx="32"
   inkscape:cy="28.457711"
   inkscape:window-width="1920"
   inkscape:window-height="991"
   inkscape:window-x="1699"
   inkscape:window-y="-9"
   inkscape:window-maximized="1"
   inkscape:current-layer="_Growth" />
<g
   id="_Growth"
   transform="translate(0,-28.778)">
	<path
   style="fill:#33cccc;stroke-width:0.1875"
   d="m 83.531911,28.778 h -5.791694 c -7.589634,0 -14.176142,4.37288 -17.375083,10.731013 C 57.166192,33.15088 50.579685,28.778 42.990238,28.778 h -5.791694 c -1.139064,0 -2.062503,0.923439 -2.062503,2.062502 0,10.717888 8.719511,19.437398 19.437398,19.437398 h 3.729192 v 15.312581 c 0,1.139064 0.923439,2.062502 2.062503,2.062502 1.139063,0 2.062502,-0.923438 2.062502,-2.062502 V 50.2779 h 3.729379 c 10.717888,0 19.437398,-8.71951 19.437398,-19.437398 0,-1.139063 -0.923438,-2.062502 -2.062502,-2.062502 z M 54.573627,46.152895 c -7.743947,0 -14.163767,-5.778381 -15.174018,-13.24989 h 3.590629 c 7.743947,0 14.163767,5.778382 15.174018,13.250078 h -3.590629 z m 11.583388,0 H 62.566199 C 63.57645,38.681387 69.99627,32.902817 77.740404,32.902817 h 3.590629 c -1.010251,7.471697 -7.430071,13.250078 -15.174018,13.250078 z"
   id="path468" />
	<path
   d="M 95.521988,87.425444 C 93.116922,84.539816 89.740793,82.753126 86.015539,82.394438 85.598163,82.354313 85.1821,82.335376 84.767725,82.331626 81.889034,71.3278 71.91796,63.527978 60.365134,63.527978 c -9.366574,0 -17.856584,5.147819 -22.226277,13.287954 -1.954502,-0.972002 -4.248942,-1.704752 -6.732007,-1.704752 -5.915445,0 -11.028763,4.165692 -12.799328,5.791694 H 2.0625024 C 0.92343859,80.902874 0,81.826313 0,82.965376 v 23.166594 c 0,1.13906 0.92343859,2.0625 2.0625024,2.0625 H 19.109648 l 17.44952,5.69007 c 0.206625,0.0673 0.422251,0.10162 0.639376,0.10162 h 28.737221 c 0.481126,0 0.947251,-0.16818 1.317377,-0.4755 12.355889,-10.25701 18.270021,-15.181141 21.4474,-17.826581 3.357379,-2.795441 3.357379,-2.795441 4.44188,-3.660004 0.434438,-0.346126 1.039501,-0.828376 2.08744,-1.671002 0.431251,-0.346688 0.705189,-0.852189 0.759939,-1.40269 0.05494,-0.550313 -0.113626,-1.099876 -0.467813,-1.524939 z M 60.365134,67.652983 c 9.499511,0 17.720083,6.302258 20.284336,15.256706 -1.774877,0.528 -3.445317,1.408314 -4.922443,2.61769 -0.986439,0.807376 -1.970628,1.721252 -3.110441,2.779129 -1.284189,1.192314 -2.724004,2.527878 -4.568256,4.090879 C 67.013704,85.89188 61.36601,80.903061 54.573252,80.903061 H 43.857614 c -0.496125,-0.481875 -1.251376,-1.166438 -2.21419,-1.896752 3.616879,-6.947633 10.795138,-11.353326 18.72171,-11.353326 z M 17.374895,104.06965 H 4.1250049 V 85.027879 H 17.374895 Z M 83.916099,86.502006 c 2.44219,-0.177751 4.925068,0.534563 6.915571,2.089314 -0.09375,0.07463 -0.179813,0.143251 -0.260063,0.207188 -1.119189,0.891939 -1.119189,0.891939 -4.510506,3.715692 -3.126941,2.603628 -8.90476,7.414321 -20.869899,17.34715 H 37.526482 L 21.4999,104.63534 V 83.839315 c 1.82269,-1.661815 5.882257,-4.602943 9.907137,-4.602943 5.373381,0 10.003512,5.057256 10.046824,5.105068 0.391126,0.436876 0.949876,0.686626 1.536377,0.686626 h 11.583201 c 4.541631,0 8.34826,3.196879 9.293449,7.458384 H 45.885992 c -1.139064,0 -2.062503,0.923439 -2.062503,2.062502 0,1.139064 0.923439,2.062503 2.062503,2.062503 h 22.808464 c 0.482063,0 0.948939,-0.168938 1.319439,-0.477188 2.26144,-1.882315 4.00688,-3.502504 5.409194,-4.804318 1.089376,-1.011189 2.029877,-1.884378 2.916941,-2.610566 1.87e-4,-3.75e-4 2.30944,-2.22469 5.576069,-2.217377 z"
   id="path470"
   style="fill:#ffffff;stroke-width:0.1875" />
</g>















</svg>
