<?xml version="1.0" encoding="UTF-8" standalone="no"?>
<svg
   id="Capa_1"
   enable-background="new 0 0 512.011 512.011"
   height="60"
   viewBox="0 0 59.993263 60.001289"
   width="59.991974"
   version="1.1"
   sodipodi:docname="guarantee.svg"
   inkscape:version="1.2.2 (732a01da63, 2022-12-09)"
   xmlns:inkscape="http://www.inkscape.org/namespaces/inkscape"
   xmlns:sodipodi="http://sodipodi.sourceforge.net/DTD/sodipodi-0.dtd"
   xmlns:xlink="http://www.w3.org/1999/xlink"
   xmlns="http://www.w3.org/2000/svg"
   xmlns:svg="http://www.w3.org/2000/svg">
  <defs
     id="defs612">
    <linearGradient
       inkscape:collect="always"
       id="linearGradient678">
      <stop
         style="stop-color:#00aa44;stop-opacity:1"
         offset="0"
         id="stop674" />
      <stop
         style="stop-color:#00ff00;stop-opacity:1"
         offset="1"
         id="stop676" />
    </linearGradient>
    <linearGradient
       inkscape:collect="always"
       xlink:href="#linearGradient678"
       id="linearGradient680"
       x1="20.378548"
       y1="11.462933"
       x2="508.82684"
       y2="512.64783"
       gradientUnits="userSpaceOnUse" />
    <linearGradient
       inkscape:collect="always"
       xlink:href="#linearGradient678"
       id="linearGradient767"
       gradientUnits="userSpaceOnUse"
       x1="20.378548"
       y1="11.462933"
       x2="508.82684"
       y2="512.64783" />
    <linearGradient
       inkscape:collect="always"
       xlink:href="#linearGradient678"
       id="linearGradient769"
       gradientUnits="userSpaceOnUse"
       x1="20.378548"
       y1="11.462933"
       x2="508.82684"
       y2="512.64783" />
    <linearGradient
       inkscape:collect="always"
       xlink:href="#linearGradient678"
       id="linearGradient771"
       gradientUnits="userSpaceOnUse"
       x1="20.378548"
       y1="11.462933"
       x2="508.82684"
       y2="512.64783" />
    <linearGradient
       inkscape:collect="always"
       xlink:href="#linearGradient678"
       id="linearGradient773"
       gradientUnits="userSpaceOnUse"
       x1="20.378548"
       y1="11.462933"
       x2="508.82684"
       y2="512.64783" />
    <linearGradient
       inkscape:collect="always"
       xlink:href="#linearGradient678"
       id="linearGradient775"
       gradientUnits="userSpaceOnUse"
       x1="20.378548"
       y1="11.462933"
       x2="508.82684"
       y2="512.64783" />
    <linearGradient
       inkscape:collect="always"
       xlink:href="#linearGradient678"
       id="linearGradient777"
       gradientUnits="userSpaceOnUse"
       x1="20.378548"
       y1="11.462933"
       x2="508.82684"
       y2="512.64783" />
    <linearGradient
       inkscape:collect="always"
       xlink:href="#linearGradient678"
       id="linearGradient779"
       gradientUnits="userSpaceOnUse"
       x1="20.378548"
       y1="11.462933"
       x2="508.82684"
       y2="512.64783" />
    <linearGradient
       inkscape:collect="always"
       xlink:href="#linearGradient678"
       id="linearGradient781"
       gradientUnits="userSpaceOnUse"
       x1="20.378548"
       y1="11.462933"
       x2="508.82684"
       y2="512.64783" />
    <linearGradient
       inkscape:collect="always"
       xlink:href="#linearGradient678"
       id="linearGradient783"
       gradientUnits="userSpaceOnUse"
       x1="20.378548"
       y1="11.462933"
       x2="508.82684"
       y2="512.64783" />
    <linearGradient
       inkscape:collect="always"
       xlink:href="#linearGradient678"
       id="linearGradient785"
       gradientUnits="userSpaceOnUse"
       x1="20.378548"
       y1="11.462933"
       x2="508.82684"
       y2="512.64783" />
    <linearGradient
       inkscape:collect="always"
       xlink:href="#linearGradient678"
       id="linearGradient787"
       gradientUnits="userSpaceOnUse"
       x1="20.378548"
       y1="11.462933"
       x2="508.82684"
       y2="512.64783" />
    <linearGradient
       inkscape:collect="always"
       xlink:href="#linearGradient678"
       id="linearGradient789"
       gradientUnits="userSpaceOnUse"
       x1="20.378548"
       y1="11.462933"
       x2="508.82684"
       y2="512.64783" />
    <linearGradient
       inkscape:collect="always"
       xlink:href="#linearGradient678"
       id="linearGradient791"
       gradientUnits="userSpaceOnUse"
       x1="20.378548"
       y1="11.462933"
       x2="508.82684"
       y2="512.64783" />
  </defs>
  <sodipodi:namedview
     id="namedview610"
     pagecolor="#505050"
     bordercolor="#eeeeee"
     borderopacity="1"
     inkscape:showpageshadow="0"
     inkscape:pageopacity="0"
     inkscape:pagecheckerboard="0"
     inkscape:deskcolor="#505050"
     showgrid="false"
     inkscape:zoom="1.5703125"
     inkscape:cx="256"
     inkscape:cy="238.48756"
     inkscape:window-width="1920"
     inkscape:window-height="991"
     inkscape:window-x="1699"
     inkscape:window-y="-9"
     inkscape:window-maximized="1"
     inkscape:current-layer="Capa_1" />
  <g
     id="g607"
     style="fill:url(#linearGradient680);fill-opacity:1"
     transform="matrix(0.11718773,0,0,0.11718773,-0.00404298,-1.3183573e-4)">
    <path
       d="m 167.814,108.49 c -8.151,0 -15.799,3.159 -21.535,8.896 l -43.392,43.391 c -3.905,3.905 -3.905,10.237 0,14.143 3.905,3.905 10.237,3.905 14.143,0 l 14.625,-14.625 14.785,14.786 -14.625,14.625 c -3.905,3.905 -3.905,10.237 0,14.143 3.906,3.905 10.237,3.905 14.143,0 l 43.392,-43.392 c 11.874,-11.875 11.874,-31.196 0,-43.069 -5.738,-5.739 -13.385,-8.898 -21.536,-8.898 z m 7.392,37.823 -14.624,14.625 -14.785,-14.786 14.624,-14.625 c 10.186,-9.372 24.2,4.577 14.785,14.786 z"
       id="path581"
       style="fill:url(#linearGradient767);fill-opacity:1" />
    <path
       d="m 385.943,429.691 14.785,-14.785 10.737,10.737 c 3.906,3.905 10.237,3.905 14.143,0 3.905,-3.905 3.905,-10.237 0,-14.143 l -10.737,-10.737 14.786,-14.786 18.24,18.241 c 3.906,3.906 10.236,3.906 14.143,0 3.905,-3.905 3.905,-10.237 0,-14.142 l -25.312,-25.312 c -3.724,-3.874 -10.418,-3.873 -14.143,0 l -57.856,57.856 c -3.873,3.724 -3.873,10.419 0,14.143 l 25.312,25.312 c 3.906,3.905 10.237,3.905 14.143,0 3.905,-3.905 3.905,-10.237 0,-14.142 z"
       id="path583"
       style="fill:url(#linearGradient769);fill-opacity:1" />
    <path
       d="m 337.448,405.339 c 2.56,0 5.118,-0.976 7.071,-2.929 l 50.784,-50.784 5.584,5.585 c 3.906,3.905 10.236,3.905 14.143,0 3.905,-3.905 3.905,-10.237 0,-14.143 l -25.312,-25.312 c -3.905,-3.905 -10.235,-3.905 -14.143,0 -3.905,3.905 -3.905,10.237 0,14.142 l 5.585,5.585 -50.784,50.784 c -3.905,3.905 -3.905,10.237 0,14.143 1.954,1.953 4.513,2.929 7.072,2.929 z"
       id="path585"
       style="fill:url(#linearGradient771);fill-opacity:1" />
    <path
       d="m 51.942,80.904 10.68,-10.68 C 66.495,66.5 66.496,59.805 62.621,56.081 L 55.389,48.85 c -3.904,-3.904 -10.237,-3.904 -14.142,10e-4 -3.905,3.906 -3.905,10.237 10e-4,14.143 l 0.16,0.16 -3.608,3.608 c -3.851,4.024 -10.933,4.023 -14.785,0 -4.023,-3.851 -4.023,-10.933 0,-14.785 L 51.943,23.049 c 4.075,-4.077 10.708,-4.076 14.785,0 2.782,2.783 3.75,6.868 2.525,10.661 -1.696,5.256 1.188,10.892 6.444,12.589 C 80.956,47.996 86.59,45.11 88.286,39.855 91.828,28.883 88.986,17.025 80.87,8.907 68.995,-2.967 49.675,-2.968 37.8,8.907 L 8.871,37.834 c -11.782,11.296 -11.782,31.774 0,43.069 11.296,11.783 31.774,11.782 43.071,10e-4 z"
       id="path587"
       style="fill:url(#linearGradient773);fill-opacity:1" />
    <path
       d="m 309.355,367.245 57.855,-57.856 c 3.905,-3.905 3.905,-10.237 0,-14.143 -3.906,-3.905 -10.236,-3.906 -14.143,0 l -27.901,27.902 15.532,-46.597 c 1.466,-4.399 -0.285,-9.23 -4.229,-11.668 -3.945,-2.438 -9.048,-1.845 -12.329,1.436 l -57.855,57.855 c -3.905,3.905 -3.905,10.237 0,14.143 3.906,3.905 10.236,3.905 14.143,0 l 27.901,-27.902 -15.532,46.597 c -1.466,4.399 0.285,9.23 4.229,11.669 1.625,1.004 3.445,1.494 5.255,1.494 2.583,-0.001 5.144,-1.001 7.074,-2.93 z"
       id="path589"
       style="fill:url(#linearGradient775);fill-opacity:1" />
    <path
       d="m 229.125,157.161 c -3.725,-3.873 -10.418,-3.873 -14.143,0 l -57.856,57.857 c -3.905,3.905 -3.905,10.237 0,14.142 3.906,3.905 10.237,3.905 14.143,0 l 21.857,-21.858 3.022,3.022 -12.51,37.53 c -1.746,5.24 1.086,10.903 6.325,12.649 5.099,1.742 10.913,-1.036 12.649,-6.324 l 10.624,-31.871 c 2.821,0.845 5.784,1.282 8.817,1.282 26.861,0.241 40.628,-33.115 21.535,-51.966 z m 0.321,43.391 c -3.828,3.998 -10.855,4.027 -14.718,0.065 -0.063,-0.065 -0.128,-0.128 -0.193,-0.191 l -7.267,-7.266 14.785,-14.786 7.393,7.393 c 4.077,4.076 4.077,10.709 0,14.785 z"
       id="path591"
       style="fill:url(#linearGradient777);fill-opacity:1" />
    <path
       d="m 63.11,135.143 c 11.296,11.783 31.774,11.782 43.07,0 l 43.392,-43.392 c 3.905,-3.905 3.905,-10.237 0,-14.143 -3.906,-3.905 -10.236,-3.905 -14.143,0 L 92.037,121 c -10.186,9.373 -24.2,-4.576 -14.785,-14.785 l 43.392,-43.392 c 3.905,-3.905 3.905,-10.237 0,-14.143 -3.906,-3.905 -10.236,-3.905 -14.143,0 L 63.11,92.074 c -11.874,11.874 -11.874,31.195 0,43.069 z"
       id="path593"
       style="fill:url(#linearGradient779);fill-opacity:1" />
    <path
       d="m 240.294,312.327 c 3.906,3.905 10.237,3.905 14.143,0 l 43.392,-43.392 c 11.874,-11.875 11.874,-31.196 0,-43.069 -11.296,-11.783 -31.775,-11.782 -43.07,0 l -43.392,43.391 c -3.905,3.905 -3.905,10.237 0,14.143 3.906,3.905 10.238,3.905 14.143,0 l 14.625,-14.625 14.786,14.786 -14.626,14.625 c -3.906,3.904 -3.906,10.236 -10e-4,14.141 z m 13.983,-57.696 14.624,-14.624 c 3.852,-4.023 10.933,-4.024 14.785,0 4.076,4.076 4.076,10.709 0,14.785 l -14.623,14.624 z"
       id="path595"
       style="fill:url(#linearGradient781);fill-opacity:1" />
    <path
       d="m 509.047,437.084 -25.312,-25.312 c -3.725,-3.874 -10.418,-3.873 -14.143,0 l -57.855,57.856 c -3.905,3.905 -3.905,10.237 0,14.142 l 25.312,25.312 c 3.906,3.906 10.236,3.905 14.143,0 3.905,-3.905 3.905,-10.237 0,-14.143 l -18.24,-18.241 14.785,-14.785 10.737,10.737 c 3.906,3.905 10.237,3.905 14.143,0 3.905,-3.905 3.905,-10.237 0,-14.143 l -10.737,-10.737 14.786,-14.786 18.24,18.241 c 3.906,3.906 10.236,3.906 14.143,0 3.903,-3.904 3.903,-10.236 -0.002,-14.141 z"
       id="path597"
       style="fill:url(#linearGradient783);fill-opacity:1" />
    <path
       d="m 165.426,53.192 48.264,12.632 c 2.968,0.776 6.129,0.148 8.573,-1.706 l 33.713,-25.559 33.714,25.559 c 2.445,1.854 5.604,2.48 8.573,1.706 l 40.928,-10.712 21.366,36.516 c 1.549,2.648 4.229,4.438 7.269,4.856 l 41.912,5.765 5.767,41.913 c 0.418,3.04 2.208,5.719 4.856,7.268 l 36.514,21.365 -10.712,40.929 c -0.777,2.968 -0.148,6.129 1.705,8.574 l 25.56,33.712 -25.56,33.713 c -1.854,2.445 -2.482,5.605 -1.705,8.574 l 12.632,48.262 c 1.176,4.495 5.229,7.471 9.667,7.471 0.838,0 1.69,-0.106 2.539,-0.328 5.343,-1.398 8.54,-6.863 7.142,-12.207 l -11.401,-43.562 27.204,-35.882 c 2.708,-3.572 2.708,-8.511 0,-12.083 l -27.204,-35.881 11.401,-43.562 c 1.136,-4.337 -0.754,-8.899 -4.624,-11.163 l -38.863,-22.74 -6.138,-44.609 c -0.61,-4.441 -4.103,-7.933 -8.544,-8.544 l -44.608,-6.136 -22.74,-38.865 c -2.264,-3.87 -6.827,-5.759 -11.163,-4.624 L 297.9,45.245 262.017,18.042 c -3.572,-2.709 -8.51,-2.708 -12.082,0 L 214.053,45.245 170.49,33.844 c -5.339,-1.397 -10.808,1.799 -12.206,7.142 -1.398,5.343 1.799,10.808 7.142,12.206 z"
       id="path599"
       style="fill:url(#linearGradient785);fill-opacity:1" />
    <path
       d="m 346.526,458.829 -48.264,-12.632 c -2.971,-0.778 -6.13,-0.149 -8.573,1.706 l -33.713,25.559 -33.714,-25.559 c -2.445,-1.854 -5.604,-2.481 -8.573,-1.706 l -40.928,10.712 -21.366,-36.516 c -1.549,-2.648 -4.229,-4.438 -7.269,-4.856 l -41.911,-5.765 -5.767,-41.913 C 96.03,364.819 94.24,362.14 91.592,360.59 L 55.077,339.225 65.789,298.296 c 0.777,-2.968 0.148,-6.129 -1.705,-8.574 l -25.56,-33.713 25.56,-33.713 c 1.854,-2.445 2.482,-5.605 1.705,-8.574 L 53.157,165.46 c -1.397,-5.343 -6.865,-8.543 -12.206,-7.143 -5.343,1.398 -8.54,6.863 -7.142,12.207 l 11.401,43.562 -27.204,35.882 c -2.708,3.572 -2.708,8.511 0,12.083 l 27.204,35.882 -11.4,43.563 c -1.136,4.337 0.754,8.899 4.624,11.164 l 38.864,22.74 6.136,44.609 c 0.611,4.441 4.104,7.933 8.545,8.544 l 44.608,6.136 22.74,38.865 c 2.264,3.869 6.827,5.757 11.163,4.624 l 43.562,-11.401 35.883,27.203 c 3.572,2.709 8.51,2.708 12.082,0 l 35.882,-27.203 43.562,11.401 c 5.339,1.399 10.809,-1.799 12.206,-7.142 1.399,-5.344 -1.799,-10.809 -7.141,-12.207 z"
       id="path601"
       style="fill:url(#linearGradient787);fill-opacity:1" />
    <path
       d="M 421.706,294.011 C 450.645,173.744 338.218,61.34 217.974,90.282 c -7.539,1.596 -10.406,11.442 -4.843,16.819 l 191.755,191.754 c 2.577,2.585 6.381,3.542 9.839,2.538 3.497,-1.007 6.171,-3.835 6.981,-7.382 z M 405.24,270.925 241.06,106.746 c 92.892,-10.23 174.41,71.291 164.18,164.179 z"
       id="path603"
       style="fill:url(#linearGradient789);fill-opacity:1" />
    <path
       d="m 90.245,218.011 c -28.946,120.258 83.495,232.674 203.73,203.73 7.557,-1.593 10.395,-11.453 4.845,-16.82 L 107.066,213.166 c -2.573,-2.573 -6.342,-3.545 -9.839,-2.538 -3.497,1.007 -6.171,3.835 -6.982,7.383 z m 16.466,23.085 164.179,164.179 C 177.999,415.505 96.481,333.984 106.711,241.096 Z"
       id="path605"
       style="fill:url(#linearGradient791);fill-opacity:1" />
  </g>
</svg>
