<?xml version="1.0" encoding="UTF-8" standalone="no"?>
<svg
   version="1.1"
   width="32"
   height="32"
   x="0"
   y="0"
   viewBox="0 0 3 3"
   xml:space="preserve"
   
   id="svg20"
   sodipodi:docname="hospital.svg"
   inkscape:version="1.2.2 (732a01da63, 2022-12-09)"
   xmlns:inkscape="http://www.inkscape.org/namespaces/inkscape"
   xmlns:sodipodi="http://sodipodi.sourceforge.net/DTD/sodipodi-0.dtd"
   xmlns="http://www.w3.org/2000/svg"
   xmlns:svg="http://www.w3.org/2000/svg"><defs
   id="defs24" /><sodipodi:namedview
   id="namedview22"
   pagecolor="#505050"
   bordercolor="#eeeeee"
   borderopacity="1"
   inkscape:showpageshadow="0"
   inkscape:pageopacity="0"
   inkscape:pagecheckerboard="0"
   inkscape:deskcolor="#505050"
   showgrid="false"
   inkscape:zoom="1.5703125"
   inkscape:cx="213.33333"
   inkscape:cy="213.65174"
   inkscape:window-width="1920"
   inkscape:window-height="991"
   inkscape:window-x="1699"
   inkscape:window-y="-9"
   inkscape:window-maximized="1"
   inkscape:current-layer="svg20" />
  <g
   id="g18"
   transform="matrix(0.075,0,0,0.075,-0.3,-0.3)">
    <path
   d="m 5,44 h 38 a 1,1 0 0 0 1,-1 V 19 A 1,1 0 0 0 43,18 H 38 V 9 A 1,1 0 0 0 37,8 H 32 V 7 A 3,3 0 0 0 29,4 H 19 a 3,3 0 0 0 -3,3 v 1 h -5 a 1,1 0 0 0 -1,1 v 9 H 5 a 1,1 0 0 0 -1,1 v 24 a 1,1 0 0 0 1,1 z M 38,20 h 4 V 42 H 38 Z M 27,42 h -6 v -7 h 6 z M 18,7 a 1,1 0 0 1 1,-1 h 10 a 1,1 0 0 1 1,1 v 10 a 1,1 0 0 1 -1,1 H 19 a 1,1 0 0 1 -1,-1 z m -6,3 h 4 v 7 a 3,3 0 0 0 3,3 h 10 a 3,3 0 0 0 3,-3 v -7 h 4 v 32 h -7 v -8 a 1,1 0 0 0 -1,-1 h -8 a 1,1 0 0 0 -1,1 v 8 H 12 Z M 6,20 h 4 V 42 H 6 Z"
   fill="#091f81"
   data-original="#000000"
   opacity="1"
   
   id="path14" />
    <path
   d="m 21,13 h 2 v 2 a 1,1 0 0 0 2,0 v -2 h 2 a 1,1 0 0 0 0,-2 H 25 V 9 a 1,1 0 1 0 -2,0 v 2 h -2 a 1,1 0 0 0 0,2 z m -4,12 h 2 a 1,1 0 0 0 0,-2 h -2 a 1,1 0 0 0 0,2 z m 3,4 a 1,1 0 0 0 -1,-1 h -2 a 1,1 0 0 0 0,2 h 2 a 1,1 0 0 0 1,-1 z m 3,-4 h 2 a 1,1 0 0 0 0,-2 h -2 a 1,1 0 0 0 0,2 z m 0,5 h 2 a 1,1 0 0 0 0,-2 h -2 a 1,1 0 0 0 0,2 z m 6,-5 h 2 a 1,1 0 0 0 0,-2 h -2 a 1,1 0 0 0 0,2 z m 0,5 h 2 a 1,1 0 0 0 0,-2 h -2 a 1,1 0 0 0 0,2 z"
   fill="#091f81"
   data-original="#000000"
   opacity="1"
   
   id="path16" />
  </g>
</svg>
