<?xml version="1.0" encoding="UTF-8" standalone="no"?>
<svg
   version="1.1"
   width="32"
   height="25.6"
   x="0"
   y="0"
   viewBox="0 0 32 25.6"
   xml:space="preserve"
   
   id="svg404"
   sodipodi:docname="hotel.svg"
   inkscape:version="1.2.2 (732a01da63, 2022-12-09)"
   xmlns:inkscape="http://www.inkscape.org/namespaces/inkscape"
   xmlns:sodipodi="http://sodipodi.sourceforge.net/DTD/sodipodi-0.dtd"
   xmlns="http://www.w3.org/2000/svg"
   xmlns:svg="http://www.w3.org/2000/svg"><defs
   id="defs408" /><sodipodi:namedview
   id="namedview406"
   pagecolor="#505050"
   bordercolor="#eeeeee"
   borderopacity="1"
   inkscape:showpageshadow="0"
   inkscape:pageopacity="0"
   inkscape:pagecheckerboard="0"
   inkscape:deskcolor="#505050"
   showgrid="false"
   inkscape:zoom="1.5703125"
   inkscape:cx="256"
   inkscape:cy="205.37313"
   inkscape:window-width="1920"
   inkscape:window-height="991"
   inkscape:window-x="1699"
   inkscape:window-y="-9"
   inkscape:window-maximized="1"
   inkscape:current-layer="svg404" />
  <g
   id="g402"
   transform="matrix(0.0625,0,0,0.0625,0,-3.2)">
    <path
   d="m 298.667,384 h -85.333 a 8.53,8.53 0 0 0 -8.533,8.533 v 59.733 a 8.53,8.53 0 0 0 8.533,8.533 h 85.333 a 8.525,8.525 0 0 0 8.533,-8.533 V 392.533 A 8.525,8.525 0 0 0 298.667,384 Z m -8.534,59.733 h -68.267 v -42.667 h 68.267 z"
   fill="#091f81"
   data-original="#000000"
   opacity="1"
   
   id="path380" />
    <path
   d="m 247.467,392.533 h 17.067 v 59.733 h -17.067 z"
   fill="#091f81"
   data-original="#000000"
   opacity="1"
   
   id="path382" />
    <path
   d="M 341.333,51.2 H 170.667 a 8.536,8.536 0 0 0 -8.533,8.533 v 392.533 a 8.53,8.53 0 0 0 8.533,8.533 h 170.667 a 8.525,8.525 0 0 0 8.533,-8.533 V 59.733 A 8.531,8.531 0 0 0 341.333,51.2 Z M 332.8,443.733 H 179.2 V 68.267 h 153.6 z"
   fill="#091f81"
   data-original="#000000"
   opacity="1"
   
   id="path384" />
    <path
   d="M 170.667,85.333 H 102.4 a 8.536,8.536 0 0 0 -8.533,8.533 v 358.4 a 8.53,8.53 0 0 0 8.533,8.533 h 68.267 a 8.53,8.53 0 0 0 8.533,-8.533 v -358.4 a 8.536,8.536 0 0 0 -8.533,-8.533 z m -8.534,358.4 h -51.2 V 102.4 h 51.2 z"
   fill="#091f81"
   data-original="#000000"
   opacity="1"
   
   id="path386" />
    <path
   d="m 76.8,85.333 h 25.6 V 102.4 H 76.8 Z M 145.067,51.2 H 366.934 V 68.267 H 145.067 Z m 51.2,290.133 h 17.067 v 25.6 h -17.067 z m 34.133,0 h 17.067 v 25.6 H 230.4 Z m 34.133,0 H 281.6 v 25.6 h -17.067 z m 34.134,0 h 17.067 v 25.6 h -17.067 z m -102.4,-42.666 h 17.067 v 25.6 h -17.067 z m 34.133,0 h 17.067 v 25.6 H 230.4 Z m 34.133,0 H 281.6 v 25.6 h -17.067 z m 34.134,0 h 17.067 v 25.6 H 298.667 Z M 196.267,256 h 17.067 v 25.6 h -17.067 z m 34.133,0 h 17.067 v 25.6 H 230.4 Z m 34.133,0 H 281.6 v 25.6 h -17.067 z m 34.134,0 h 17.067 v 25.6 h -17.067 z m -102.4,-42.667 h 17.067 v 25.6 h -17.067 z m 34.133,0 h 17.067 v 25.6 H 230.4 Z m 34.133,0 H 281.6 v 25.6 h -17.067 z m 34.134,0 h 17.067 v 25.6 h -17.067 z m -102.4,-42.666 h 17.067 v 25.6 h -17.067 z m 34.133,0 h 17.067 v 25.6 H 230.4 Z m 34.133,0 H 281.6 v 25.6 h -17.067 z m 34.134,0 h 17.067 v 25.6 H 298.667 Z M 196.267,128 h 17.067 v 25.6 h -17.067 z m 34.133,0 h 17.067 v 25.6 H 230.4 Z m 34.133,0 H 281.6 v 25.6 h -17.067 z m 34.134,0 h 17.067 v 25.6 h -17.067 z m -102.4,-42.667 h 17.067 v 25.6 h -17.067 z m 34.133,0 h 17.067 v 25.6 H 230.4 Z m 34.133,0 H 281.6 v 25.6 h -17.067 z m 34.134,0 h 17.067 v 25.6 H 298.667 Z M 128,384 h 17.067 v 25.6 H 128 Z m 0,-42.667 h 17.067 v 25.6 H 128 Z m 0,-42.666 h 17.067 v 25.6 H 128 Z M 128,256 h 17.067 v 25.6 H 128 Z m 0,-42.667 h 17.067 v 25.6 H 128 Z m 0,-42.666 h 17.067 v 25.6 H 128 Z M 128,128 h 17.067 v 25.6 H 128 Z M 409.6,85.333 h -68.267 a 8.53,8.53 0 0 0 -8.533,8.533 v 358.4 a 8.525,8.525 0 0 0 8.533,8.533 H 409.6 a 8.525,8.525 0 0 0 8.533,-8.533 V 93.866 A 8.53,8.53 0 0 0 409.6,85.333 Z m -8.533,358.4 h -51.2 V 102.4 h 51.2 z"
   fill="#091f81"
   data-original="#000000"
   opacity="1"
   
   id="path388" />
    <path
   d="m 409.6,85.333 h 25.6 V 102.4 H 409.6 Z M 366.933,384 H 384 v 25.6 h -17.067 z m 0,-42.667 H 384 v 25.6 h -17.067 z m 0,-42.666 H 384 v 25.6 h -17.067 z m 0,-42.667 H 384 v 25.6 h -17.067 z m 0,-42.667 H 384 v 25.6 h -17.067 z m 0,-42.666 H 384 v 25.6 h -17.067 z m 0,-42.667 H 384 v 25.6 H 366.933 Z M 0,443.733 H 102.4 V 460.8 H 0 Z m 409.6,0 H 512 V 460.8 H 409.6 Z"
   fill="#091f81"
   data-original="#000000"
   opacity="1"
   
   id="path390" />
    <path
   d="M 34.133,273.067 H 51.2 v 179.2 H 34.133 Z"
   fill="#091f81"
   data-original="#000000"
   opacity="1"
   
   id="path392" />
    <path
   d="m 3.413,296.96 10.24,-13.653 68.267,51.2 -10.24,13.653 z"
   fill="#091f81"
   data-original="#000000"
   opacity="1"
   
   id="path394" />
    <path
   d="m 3.397,334.528 68.26,-51.22 10.245,13.653 -68.262,51.22 z M 460.8,273.067 h 17.067 v 179.2 H 460.8 Z"
   fill="#091f81"
   data-original="#000000"
   opacity="1"
   
   id="path396" />
    <path
   d="m 430.08,296.96 10.235,-13.647 68.266,51.2 -10.235,13.646 z"
   fill="#091f81"
   data-original="#000000"
   opacity="1"
   
   id="path398" />
    <path
   d="m 430.031,334.538 68.273,-51.181 10.23,13.647 -68.272,51.18 z"
   fill="#091f81"
   data-original="#000000"
   opacity="1"
   
   id="path400" />
  </g>
</svg>
