<?xml version="1.0" encoding="UTF-8" standalone="no"?>
<svg
   version="1.1"
   width="30.926729"
   height="32.000004"
   x="0"
   y="0"
   viewBox="0 0 12.671986 13.566689"
   xml:space="preserve"
   
   id="svg226"
   sodipodi:docname="janitor-icon.svg"
   inkscape:version="1.2.2 (732a01da63, 2022-12-09)"
   xmlns:inkscape="http://www.inkscape.org/namespaces/inkscape"
   xmlns:sodipodi="http://sodipodi.sourceforge.net/DTD/sodipodi-0.dtd"
   xmlns="http://www.w3.org/2000/svg"
   xmlns:svg="http://www.w3.org/2000/svg"><defs
   id="defs230" /><sodipodi:namedview
   id="namedview228"
   pagecolor="#505050"
   bordercolor="#eeeeee"
   borderopacity="1"
   inkscape:showpageshadow="0"
   inkscape:pageopacity="0"
   inkscape:pagecheckerboard="0"
   inkscape:deskcolor="#505050"
   showgrid="false"
   inkscape:zoom="1.5703125"
   inkscape:cx="247.72139"
   inkscape:cy="256.31841"
   inkscape:window-width="1920"
   inkscape:window-height="991"
   inkscape:window-x="1699"
   inkscape:window-y="-9"
   inkscape:window-maximized="1"
   inkscape:current-layer="svg226" />
  <g
   id="g224"
   transform="matrix(0.06250001,0,0,0.06250001,-3.6395247,-1.3289465e-6)">
    <path
   d="m 5.193,197.293 c -3.812,5.756 -2.236,13.512 3.52,17.323 a 12.445,12.445 0 0 0 6.89,2.079 12.49,12.49 0 0 0 10.434,-5.6 C 39.896,190.168 44.6,170.887 45.059,154.928 l -28.148,-22.88 c 4.736,14.735 6.423,37.851 -11.718,65.245 z"
   fill="#ffffff"
   data-original="#000000"
   
   id="path216" />
    <path
   d="m 0.304,101.177 c -0.651,4.855 -0.217,8.708 0.938,11.809 a 12.426,12.426 0 0 0 4.27,6.833 l 45.213,36.751 16.396,51.768 c 1.688,5.326 6.609,8.729 11.914,8.729 1.25,0 2.521,-0.189 3.777,-0.587 6.581,-2.084 10.227,-9.109 8.143,-15.691 L 73.43,145.456 a 12.505,12.505 0 0 0 -4.032,-5.925 L 34.3,111.002 a 79.813,79.813 0 0 1 1.758,-5.781 c -1.909,-1.826 -3.106,-4.338 -3.204,-7.065 L 31.416,57.92 c -0.202,-5.676 4.251,-10.458 9.927,-10.661 a 10.266,10.266 0 0 1 10.661,9.926 l 0.529,14.842 a 680.52,680.52 0 0 0 2.225,-3.858 C 60.656,59.658 60.907,47.171 53.5,42.425 A 16.674,16.674 0 0 0 50.784,41.032 C 50.664,40.975 50.549,40.913 50.426,40.861 49.941,40.659 45.325,38.786 38.864,37.759 28.157,36.057 12.382,36.679 1.922,51.085 a 8,8 0 0 0 0.69,10.227 l 6.498,6.801 1.656,1.733 C 6.094,78.883 3.036,88.32 0.304,101.177 Z m 86.002,22.828 90.416,84.358 h -19.768 c -1.283,0 -2.333,1.05 -2.333,2.333 0,1.283 1.05,2.333 2.333,2.333 h 50.5 c 1.283,0 2.333,-1.05 2.333,-2.333 0,-1.283 -1.05,-2.333 -2.333,-2.333 H 184.052 L 90.575,121.148 a 10.253,10.253 0 0 1 -4.269,2.857 z"
   fill="#ffffff"
   data-original="#000000"
   
   id="path218" />
    <path
   d="m 61.949,94.44 -8.913,-8.315 0.167,4.685 z"
   fill="#ffffff"
   data-original="#000000"
   
   id="path220" />
    <path
   d="m 40.078,105.176 39.75,16.5 a 7.963,7.963 0 0 0 3.064,0.613 8.003,8.003 0 0 0 3.071,-15.391 l -35.006,-14.53 -1.252,-35.1 c -0.158,-4.415 -3.885,-7.865 -8.28,-7.71 a 8,8 0 0 0 -7.71,8.28 l 1.436,40.234 a 7.998,7.998 0 0 0 4.927,7.104 z M 111.21,32.797 C 113.071,29.302 106.081,21.946 95.6,16.365 95.241,16.174 94.885,15.999 94.528,15.817 A 22.42,22.42 0 0 0 83.622,2.644 C 72.654,-3.196 59.027,0.962 53.187,11.93 c -5.841,10.97 -1.682,24.595 9.286,30.435 10.062,5.357 22.351,2.298 28.825,-6.709 a 62.23,62.23 0 0 1 -5.311,-3.58 C 76.66,25.081 70.943,16.924 72.985,13.631 c -0.281,3.77 6.341,10.309 15.878,15.387 7.197,3.832 14.169,5.83 18.435,5.575 1.946,-0.117 3.329,-0.701 3.912,-1.796 z m 45.244,181.441 c -0.55,0 -1,0.45 -1,1 v 0.121 c 0,0.55 0.45,1 1,1 h 10.198 c 0.55,0 1,-0.45 1,-1 v -0.121 c 0,-0.55 -0.45,-1 -1,-1 z m 13.768,0 c -0.55,0 -1,0.45 -1,1 v 0.121 c 0,0.55 0.45,1 1,1 h 10.198 c 0.55,0 1,-0.45 1,-1 v -0.121 c 0,-0.55 -0.45,-1 -1,-1 z m 13.767,0 c -0.55,0 -1,0.45 -1,1 v 0.121 c 0,0.55 0.45,1 1,1 h 10.198 c 0.55,0 1,-0.45 1,-1 v -0.121 c 0,-0.55 -0.45,-1 -1,-1 z m 13.767,0 c -0.55,0 -1,0.45 -1,1 v 0.121 c 0,0.55 0.45,1 1,1 h 10.198 c 0.55,0 1,-0.45 1,-1 v -0.121 c 0,-0.55 -0.45,-1 -1,-1 z"
   fill="#ffffff"
   data-original="#000000"
   
   id="path222" />
  </g>
</svg>
