<?xml version="1.0" encoding="UTF-8" standalone="no"?>
{/* Generator: Adobe Illustrator 24.2.3, SVG Export Plug-In . SVG Version: 6.00 Build 0)  */}

<svg
   version="1.1"
   id="Capa_1"
   x="0px"
   y="0px"
   viewBox="0 0 96 78.49118"
   xml:space="preserve"
   width="12"
   height="9.8113976"
   sodipodi:docname="like.svg"
   inkscape:version="1.2.2 (732a01da63, 2022-12-09)"
   xmlns:inkscape="http://www.inkscape.org/namespaces/inkscape"
   xmlns:sodipodi="http://sodipodi.sourceforge.net/DTD/sodipodi-0.dtd"
   xmlns="http://www.w3.org/2000/svg"
   xmlns:svg="http://www.w3.org/2000/svg"><defs
   id="defs236" /><sodipodi:namedview
   id="namedview234"
   pagecolor="#505050"
   bordercolor="#eeeeee"
   borderopacity="1"
   inkscape:showpageshadow="0"
   inkscape:pageopacity="0"
   inkscape:pagecheckerboard="0"
   inkscape:deskcolor="#505050"
   showgrid="false"
   inkscape:zoom="12.5625"
   inkscape:cx="32"
   inkscape:cy="20.41791"
   inkscape:window-width="1920"
   inkscape:window-height="991"
   inkscape:window-x="1699"
   inkscape:window-y="-9"
   inkscape:window-maximized="1"
   inkscape:current-layer="g231" />
<g
   id="g231"
   transform="matrix(0.1875,0,0,0.1875,0,-8.7544084)">
	<path
   d="M 498.615,271.177 C 506.84,263.589 512,252.724 512,240.679 c 0,-22.882 -18.616,-41.498 -41.498,-41.498 h -81.51 v -80.494 c 0,-39.698 -32.297,-71.995 -71.996,-71.995 -11.161,-0.175 -11.675,12.297 -11,20.523 -10e-4,39.268 -14.312,77.123 -40.295,106.592 -14.219,16.126 -35.262,25.375 -57.734,25.375 -11.362,0 -30.158,0.001 -43.412,0.001 -0.016,0 -0.032,-0.002 -0.048,-0.002 H 11 c -6.075,0 -11,4.925 -11,11 v 213.485 c 0,6.075 4.925,11 11,11 h 103.947 c 36.907,1.011 82.772,-3.786 118.343,6.801 0,0 53.354,14.79 53.354,14.79 35.809,11.419 85.504,8.707 122.861,8.906 22.882,0 41.498,-18.616 41.498,-41.498 0,-7.216 -1.855,-14.006 -5.108,-19.924 20.1,-2.871 35.606,-20.19 35.606,-41.072 0,-7.212 -1.85,-14.001 -5.1,-19.916 C 496.5,339.882 512,322.554 512,301.675 c 0,-12.046 -5.16,-22.911 -13.385,-30.498 z M 22,412.666 V 221.18 l 131.506,0.002 V 412.666 Z M 409.506,282.177 h 60.996 c 10.751,0 19.498,8.747 19.498,19.498 0,10.751 -8.747,19.498 -19.498,19.498 h -60.996 c -6.075,0 -11,4.925 -11,11 0,6.075 4.925,11 11,11 h 30.498 c 10.751,0 19.498,8.747 19.498,19.498 0,10.751 -8.747,19.497 -19.498,19.497 h -30.498 c -6.075,0 -11,4.925 -11,11 0,6.075 4.925,11 11,11 10.751,0 19.498,8.747 19.498,19.498 0,10.751 -8.747,19.498 -19.498,19.498 h -57.387 c -20.14,0 -40.191,-2.728 -59.598,-8.107 l -53.354,-14.79 c -18.195,-5.043 -36.993,-7.601 -55.87,-7.601 h -7.791 V 221.182 l 32.461,-10e-4 c 28.784,0 55.841,-11.964 74.236,-32.825 28.935,-32.815 45.132,-74.786 45.773,-118.45 22.304,5.017 39.016,24.983 39.016,48.78 v 80.494 h -19.498 c -6.075,0 -11,4.925 -11,11 0,6.075 4.925,11 11,11 h 123.008 c 10.751,0 19.498,8.747 19.498,19.498 0,10.751 -8.747,19.498 -19.498,19.498 h -60.996 c -6.075,0 -11,4.925 -11,11 0,6.075 4.925,11.001 11,11.001 z"
   id="path225"
   style="fill:#ffffff" />
	<g
   id="g229"
   style="fill:#00ffff">
		<path
   style="fill:#00ffff"
   d="m 103.51,373.668 c -3.615,0.026 -7.155,-1.876 -9.15,-4.891 -7.065,-11.213 7.334,-22.986 16.93,-13.88 6.896,6.783 1.898,18.859 -7.78,18.771 z"
   id="path227" />
	</g>
</g>















</svg>
