<?xml version="1.0" encoding="UTF-8" standalone="no"?>
<svg
   version="1.1"
   width="36.411133"
   height="32"
   x="0"
   y="0"
   viewBox="0 0 5.2625465 4.625"
   xml:space="preserve"
   
   id="svg28"
   sodipodi:docname="office-building.svg"
   inkscape:version="1.2.2 (732a01da63, 2022-12-09)"
   xmlns:inkscape="http://www.inkscape.org/namespaces/inkscape"
   xmlns:sodipodi="http://sodipodi.sourceforge.net/DTD/sodipodi-0.dtd"
   xmlns="http://www.w3.org/2000/svg"
   xmlns:svg="http://www.w3.org/2000/svg"><defs
   id="defs32" /><sodipodi:namedview
   id="namedview30"
   pagecolor="#505050"
   bordercolor="#eeeeee"
   borderopacity="1"
   inkscape:showpageshadow="0"
   inkscape:pageopacity="0"
   inkscape:pagecheckerboard="0"
   inkscape:deskcolor="#505050"
   showgrid="false"
   inkscape:zoom="1.5703125"
   inkscape:cx="247.72139"
   inkscape:cy="238.48756"
   inkscape:window-width="1920"
   inkscape:window-height="991"
   inkscape:window-x="1699"
   inkscape:window-y="-9"
   inkscape:window-maximized="1"
   inkscape:current-layer="svg28" />
  <g
   id="g26"
   transform="matrix(0.07517924,0,0,0.07517924,-0.09254564,-0.19263595)">
    <path
   d="m 51.087,64.082 a 1,1 0 0 1 -1,-1 V 9.96 L 37.413,4.643 26.77,8.83 v 54.252 a 1,1 0 0 1 -2,0 V 8.148 A 1,1 0 0 1 25.404,7.217 L 37.059,2.632 a 1,1 0 0 1 0.753,0.008 l 13.662,5.733 a 1,1 0 0 1 0.613,0.922 v 53.787 a 1,1 0 0 1 -1,1 z"
   fill="#091f81"
   data-original="#000000"
   opacity="1"
   
   id="path18" />
    <path
   d="m 37.425,64.082 a 1,1 0 0 1 -1,-1 V 3.563 a 1,1 0 0 1 2,0 v 59.519 a 1,1 0 0 1 -1,1 z m 29.807,0 a 1,1 0 0 1 -1,-1 v -31.43 l -9.778,-5.689 h -5.367 a 1,1 0 0 1 0,-2 h 5.637 a 1,1 0 0 1 0.5,0.136 l 10.509,6.114 a 1,1 0 0 1 0.5,0.864 v 32 a 1,1 0 0 1 -1.001,1.005 z"
   fill="#091f81"
   data-original="#000000"
   opacity="1"
   
   id="path20" />
    <path
   d="m 56.724,64.082 a 1,1 0 0 1 -1,-1 V 24.963 a 1,1 0 0 1 2,0 v 38.119 a 1,1 0 0 1 -1,1 z m -51.495,0 a 1,1 0 0 1 -1,-1 V 31.937 a 1,1 0 0 1 1,-1 H 25.77 a 1,1 0 0 1 0,2 H 6.229 v 30.145 a 1,1 0 0 1 -1,1 z"
   fill="#091f81"
   data-original="#000000"
   opacity="1"
   
   id="path22" />
    <path
   d="M 10.734,36.778 H 8.609 a 1,1 0 0 1 0,-2 h 2.125 a 1,1 0 0 1 0,2 z m 5.829,0 h -2.126 a 1,1 0 0 1 0,-2 h 2.126 a 1,1 0 0 1 0,2 z m 5.827,0 h -2.125 a 1,1 0 0 1 0,-2 h 2.125 a 1,1 0 1 1 0,2 z M 10.734,41.471 H 8.609 a 1,1 0 0 1 0,-2 h 2.125 a 1,1 0 0 1 0,2 z m 5.829,0 h -2.126 a 1,1 0 0 1 0,-2 h 2.126 a 1,1 0 0 1 0,2 z m 5.827,0 h -2.125 a 1,1 0 1 1 0,-2 h 2.125 a 1,1 0 0 1 0,2 z M 10.734,46.163 H 8.609 a 1,1 0 0 1 0,-2 h 2.125 a 1,1 0 0 1 0,2 z m 5.829,0 h -2.126 a 1,1 0 0 1 0,-2 h 2.126 a 1,1 0 0 1 0,2 z m 5.827,0 h -2.125 a 1,1 0 0 1 0,-2 h 2.125 a 1,1 0 1 1 0,2 z M 10.734,50.856 H 8.609 a 1,1 0 0 1 0,-2 h 2.125 a 1,1 0 0 1 0,2 z m 5.829,0 h -2.126 a 1,1 0 0 1 0,-2 h 2.126 a 1,1 0 0 1 0,2 z m 5.827,0 h -2.125 a 1,1 0 0 1 0,-2 h 2.125 a 1,1 0 1 1 0,2 z M 10.734,55.549 H 8.609 a 1,1 0 0 1 0,-2 h 2.125 a 1,1 0 1 1 0,2 z m 5.829,0 h -2.126 a 1,1 0 1 1 0,-2 h 2.126 a 1,1 0 1 1 0,2 z m 5.827,0 h -2.125 a 1,1 0 1 1 0,-2 h 2.125 a 1,1 0 0 1 0,2 z M 10.734,60.242 H 8.609 a 1,1 0 0 1 0,-2 h 2.125 a 1,1 0 0 1 0,2 z m 5.829,0 h -2.126 a 1,1 0 0 1 0,-2 h 2.126 a 1,1 0 0 1 0,2 z m 5.827,0 h -2.125 a 1,1 0 0 1 0,-2 h 2.125 a 1,1 0 1 1 0,2 z M 33.9,13.352 a 1,1 0 0 1 -1,-1 v -1.887 a 1,1 0 0 1 2,0 v 1.887 a 1,1 0 0 1 -1,1 z m -4.56,1.163 a 1,1 0 0 1 -1,-1 v -1.887 a 1,1 0 0 1 2,0 v 1.887 a 1,1 0 0 1 -1,1 z m 4.56,6.359 a 1,1 0 0 1 -1,-1 v -1.887 a 1,1 0 0 1 2,0 v 1.887 a 1,1 0 0 1 -1,1 z m -4.56,1.163 a 1,1 0 0 1 -1,-1 V 19.15 a 1,1 0 1 1 2,0 v 1.887 a 1,1 0 0 1 -1,1 z M 33.9,28.4 a 1,1 0 0 1 -1,-1 v -1.891 a 1,1 0 1 1 2,0 V 27.4 a 1,1 0 0 1 -1,1 z m -4.56,1.159 a 1,1 0 0 1 -1,-1 v -1.887 a 1,1 0 0 1 2,0 v 1.887 a 1,1 0 0 1 -1,1 z m 4.56,6.358 a 1,1 0 0 1 -1,-1 V 33.03 a 1,1 0 0 1 2,0 v 1.887 a 1,1 0 0 1 -1,1 z m -4.56,1.163 a 1,1 0 0 1 -1,-1 v -1.887 a 1,1 0 0 1 2,0 v 1.887 a 1,1 0 0 1 -1,1 z m 4.56,6.359 a 1,1 0 0 1 -1,-1 v -1.887 a 1,1 0 0 1 2,0 v 1.887 a 1,1 0 0 1 -1,1 z M 29.34,44.6 a 1,1 0 0 1 -1,-1 v -1.885 a 1,1 0 0 1 2,0 V 43.6 a 1,1 0 0 1 -1,1 z m 4.56,6.361 a 1,1 0 0 1 -1,-1 v -1.887 a 1,1 0 0 1 2,0 v 1.887 a 1,1 0 0 1 -1,1 z m -4.56,1.163 a 1,1 0 0 1 -1,-1 v -1.887 a 1,1 0 0 1 2,0 v 1.887 a 1,1 0 0 1 -1,1 z m 4.56,6.358 a 1,1 0 0 1 -1,-1 V 55.6 a 1,1 0 0 1 2,0 v 1.887 a 1,1 0 0 1 -1,0.995 z m -4.56,1.164 a 1,1 0 0 1 -1,-1 v -1.888 a 1,1 0 0 1 2,0 v 1.887 a 1,1 0 0 1 -1,1.001 z M 40.8,12.4 a 1,1 0 0 1 -1,-1 V 9.515 a 1,1 0 0 1 2,0 V 11.4 a 1,1 0 0 1 -1,1 z m 3.377,1.275 a 1,1 0 0 1 -1,-1 v -1.886 a 1,1 0 1 1 2,0 v 1.887 a 1,1 0 0 1 -1,0.999 z m 3.375,1.274 a 1,1 0 0 1 -1,-1 v -1.886 a 1,1 0 0 1 2,0 v 1.887 a 1,1 0 0 1 -1,0.999 z M 40.8,19.9 a 1,1 0 0 1 -1,-1 v -1.89 a 1,1 0 0 1 2,0 v 1.89 a 1,1 0 0 1 -1,1 z m 3.377,1.27 a 1,1 0 0 1 -1,-1 v -1.886 a 1,1 0 0 1 2,0 v 1.886 a 1,1 0 0 1 -1,1 z m 3.375,1.274 a 1,1 0 0 1 -1,-1 v -1.886 a 1,1 0 0 1 2,0 v 1.887 a 1,1 0 0 1 -1,0.999 z M 40.8,27.392 a 1,1 0 0 1 -1,-1 V 24.5 a 1,1 0 1 1 2,0 v 1.887 a 1,1 0 0 1 -1,1.005 z m 3.377,1.274 a 1,1 0 0 1 -1,-1 v -1.887 a 1,1 0 1 1 2,0 v 1.887 a 1,1 0 0 1 -1,1 z m 3.375,1.273 a 1,1 0 0 1 -1,-1 v -1.886 a 1,1 0 0 1 2,0 v 1.887 a 1,1 0 0 1 -1,0.999 z M 40.8,34.887 a 1,1 0 0 1 -1,-1 V 32 a 1,1 0 0 1 2,0 v 1.887 a 1,1 0 0 1 -1,1 z m 3.377,1.274 a 1,1 0 0 1 -1,-1 v -1.887 a 1,1 0 0 1 2,0 v 1.887 a 1,1 0 0 1 -1,1 z m 3.375,1.274 a 1,1 0 0 1 -1,-1 v -1.887 a 1,1 0 0 1 2,0 v 1.887 a 1,1 0 0 1 -1,1 z M 40.8,42.382 a 1,1 0 0 1 -1,-1 V 39.5 a 1,1 0 0 1 2,0 v 1.887 a 1,1 0 0 1 -1,0.995 z m 3.377,1.274 a 1,1 0 0 1 -1,-1 v -1.887 a 1,1 0 0 1 2,0 v 1.887 a 1,1 0 0 1 -1,1 z m 3.375,1.274 a 1,1 0 0 1 -1,-1 v -1.887 a 1,1 0 0 1 2,0 v 1.887 a 1,1 0 0 1 -1,1 z M 40.8,49.877 a 1,1 0 0 1 -1,-1 V 46.99 a 1,1 0 0 1 2,0 v 1.887 a 1,1 0 0 1 -1,1 z m 3.377,1.274 a 1,1 0 0 1 -1,-1 v -1.887 a 1,1 0 0 1 2,0 v 1.887 a 1,1 0 0 1 -1,1 z m 3.375,1.274 a 1,1 0 0 1 -1,-1 v -1.887 a 1,1 0 0 1 2,0 v 1.887 a 1,1 0 0 1 -1,1 z M 40.8,57.372 a 1,1 0 0 1 -1,-1 v -1.887 a 1,1 0 0 1 2,0 v 1.887 a 1,1 0 0 1 -1,1 z m 3.377,1.274 a 1,1 0 0 1 -1,-1 v -1.887 a 1,1 0 0 1 2,0 v 1.887 a 1,1 0 0 1 -1,1 z m 3.375,1.274 a 1,1 0 0 1 -1,-1 v -1.887 a 1,1 0 0 1 2,0 v 1.887 a 1,1 0 0 1 -1,1 z M 60.2,33.65 a 1,1 0 0 1 -1,-1 v -1.011 a 1,1 0 0 1 2,0 v 1.011 a 1,1 0 0 1 -1,1 z m 3.37,2.118 a 1,1 0 0 1 -1,-1 v -1.011 a 1,1 0 0 1 2,0 v 1.011 a 1,1 0 0 1 -1,1 z m -3.37,2.82 a 1,1 0 0 1 -1,-1 v -1.01 a 1,1 0 0 1 2,0 v 1.011 a 1,1 0 0 1 -1,0.999 z m 3.37,2.118 a 1,1 0 0 1 -1,-1 V 38.7 a 1,1 0 0 1 2,0 v 1.011 a 1,1 0 0 1 -1,0.995 z m -3.37,2.821 a 1,1 0 0 1 -1,-1 v -1.011 a 1,1 0 0 1 2,0 v 1.011 a 1,1 0 0 1 -1,1 z m 3.37,2.118 a 1,1 0 0 1 -1,-1 v -1.011 a 1,1 0 0 1 2,0 v 1.011 a 1,1 0 0 1 -1,1 z m -3.37,2.821 a 1,1 0 0 1 -1,-1 v -1.011 a 1,1 0 0 1 2,0 v 1.011 a 1,1 0 0 1 -1,1 z m 3.37,2.117 a 1,1 0 0 1 -1,-1 v -1.011 a 1,1 0 0 1 2,0 v 1.011 a 1,1 0 0 1 -1,1 z M 60.2,53.4 a 1,1 0 0 1 -1,-1 v -1.007 a 1,1 0 0 1 2,0 V 52.4 a 1,1 0 0 1 -1,1 z m 3.37,2.122 a 1,1 0 0 1 -1,-1 v -1.011 a 1,1 0 0 1 2,0 v 1.011 a 1,1 0 0 1 -1,1 z m -3.37,2.821 a 1,1 0 0 1 -1,-1 v -1.011 a 1,1 0 0 1 2,0 v 1.011 a 1,1 0 0 1 -1,1 z m 3.37,2.117 a 1,1 0 0 1 -1,-1 v -1.011 a 1,1 0 0 1 2,0 v 1.011 a 1,1 0 0 1 -1,1 z m 6.661,3.606 h -68 a 1,1 0 1 1 0,-2 h 68 a 1,1 0 0 1 0,2 z"
   fill="#091f81"
   data-original="#000000"
   opacity="1"
   
   id="path24" />
  </g>
</svg>
