<?xml version="1.0" encoding="UTF-8" standalone="no"?>
<svg
   version="1.1"
   width="12"
   height="12.87552"
   x="0"
   y="0"
   viewBox="0 0 4.8046875 5.1552374"
   xml:space="default"
   
   id="svg38"
   sodipodi:docname="phone-receiver-silhouette.svg"
   inkscape:version="1.2.2 (732a01da63, 2022-12-09)"
   xmlns:inkscape="http://www.inkscape.org/namespaces/inkscape"
   xmlns:sodipodi="http://sodipodi.sourceforge.net/DTD/sodipodi-0.dtd"
   xmlns="http://www.w3.org/2000/svg"
   xmlns:svg="http://www.w3.org/2000/svg">
  <defs
     id="defs42" />
  <sodipodi:namedview
     id="namedview40"
     pagecolor="#505050"
     bordercolor="#eeeeee"
     borderopacity="1"
     inkscape:showpageshadow="0"
     inkscape:pageopacity="0"
     inkscape:pagecheckerboard="0"
     inkscape:deskcolor="#505050"
     showgrid="false"
     inkscape:zoom="10.207381"
     inkscape:cx="31.839705"
     inkscape:cy="32.182594"
     inkscape:window-width="1920"
     inkscape:window-height="991"
     inkscape:window-x="1699"
     inkscape:window-y="-9"
     inkscape:window-maximized="1"
     inkscape:current-layer="svg38" />
  <g
     id="g36"
     transform="matrix(0.20118268,0,0,0.20118268,-0.17535738,2.9270347e-5)"
     style="fill:#ffffff">
    <path
       d="M 22.079,17.835 C 20.531,16.511 18.96,15.709 17.431,17.031 L 16.518,17.83 C 15.85,18.41 14.608,21.12 9.806,15.596 5.005,10.079 7.862,9.22 8.531,8.645 l 0.918,-0.8 C 10.97,6.52 10.396,4.852 9.299,3.135 L 8.637,2.095 C 7.535,0.382 6.335,-0.743 4.81,0.58 L 3.986,1.3 C 3.312,1.791 1.428,3.387 0.971,6.419 c -0.55,3.638 1.185,7.804 5.16,12.375 3.97,4.573 7.857,6.87 11.539,6.83 3.06,-0.033 4.908,-1.675 5.486,-2.272 l 0.827,-0.721 c 1.521,-1.322 0.576,-2.668 -0.973,-3.995 z"
       fill="#bfdbfe"
       data-original="#030104"
       opacity="1"
       
       id="path34"
       style="fill:#ffffff" />
  </g>
</svg>
