<?xml version="1.0" encoding="UTF-8" standalone="no"?>
<svg
   id="Layer_1"
   data-name="Layer 1"
   viewBox="0 0 27.027027 20.000001"
   version="1.1"
   sodipodi:docname="ps-monogram-white.svg"
   width="27.027027"
   height="20"
   inkscape:version="1.2.2 (732a01da63, 2022-12-09)"
   xmlns:inkscape="http://www.inkscape.org/namespaces/inkscape"
   xmlns:sodipodi="http://sodipodi.sourceforge.net/DTD/sodipodi-0.dtd"
   xmlns="http://www.w3.org/2000/svg"
   xmlns:svg="http://www.w3.org/2000/svg">
  <sodipodi:namedview
     id="namedview919"
     pagecolor="#505050"
     bordercolor="#eeeeee"
     borderopacity="1"
     inkscape:showpageshadow="0"
     inkscape:pageopacity="0"
     inkscape:pagecheckerboard="0"
     inkscape:deskcolor="#505050"
     showgrid="false"
     inkscape:zoom="10.872211"
     inkscape:cx="50.035819"
     inkscape:cy="37.020987"
     inkscape:window-width="1920"
     inkscape:window-height="991"
     inkscape:window-x="1699"
     inkscape:window-y="-9"
     inkscape:window-maximized="1"
     inkscape:current-layer="Layer_1" />
  <defs
     id="defs912">
    <style
       id="style910">.cls-1{fill:#ffffff;}</style>
  </defs>
  <path
     className="cls-1"
     d="M 12.837838,5.6891892 A 5.2378378,5.2378378 0 0 1 14.689189,1.5945946 C 13.391892,0.72432432 11.583784,0.27027027 9.4594595,0.27027027 H 0 v 0.0540541 C 1.2756757,1.0540541 1.5540541,1.8918919 1.5540541,3.7108108 V 16.262162 c 0,1.840541 -0.2702703,2.67027 -1.5540541,3.394595 v 0.05135 h 7.9135135 v -0.05135 C 6.1162162,18.878378 5.7216216,18.189189 5.7216216,16.413514 v -4.756757 h 3.7567568 c 2.3378376,0 4.2837836,-0.540541 5.5945946,-1.594595 C 13.754054,9.1891892 12.837838,7.8810811 12.837838,5.6891892 Z M 8.1378378,10.935135 H 5.7216216 V 1 h 2.4162162 c 3.1891892,0 4.6675672,2.0216216 4.6675672,4.9675676 0,2.9459459 -1.478378,4.9675674 -4.6675672,4.9675674 z"
     id="path914"
     style="stroke-width:0.27027" />
  <path
     className="cls-1"
     d="m 16.102703,2.972973 c 0.383783,-1.5702703 1.818919,-2.39729732 3.456756,-2.39729732 2.916217,0 4.764865,2.12702702 6.297298,5.02972972 h 0.06486 L 25.802703,0 C 25.389189,0.38378378 24.943243,0.85135135 24.164865,0.85135135 23.145946,0.85135135 21.697297,0 19.57027,0 17.602703,0 15.902703,0.57567568 14.705405,1.5945946 a 5,5 0 0 1 1.397298,1.3783784 z m 4.235135,4.8243243 C 18.986486,7.3918919 17.740541,6.9567568 16.932432,6.2 a 4.8972973,4.8972973 0 0 1 -1.859459,3.862162 c 0.997297,0.65946 2.221622,1.081081 3.435135,1.456757 2.702703,0.862162 5.381081,1.532432 5.381081,4.243243 C 23.889189,18.102703 22.22973,19.4 19.867568,19.4 17.113514,19.4 14.421622,17.210811 12.7,13.689189 H 12.64595 L 13.062162,20 c 0.583784,-0.5 1.105406,-0.883784 1.891892,-0.883784 C 16.102703,19.116216 17.656757,20 19.9,20 c 3.745946,0 7.127027,-1.981081 7.127027,-5.875676 0,-4.4675672 -3.583784,-5.4135132 -6.689189,-6.3270267 z"
     id="path916"
     style="stroke-width:0.27027" />
</svg>
