<svg id="Layer_1" data-name="Layer 1" xmlns="http://www.w3.org/2000/svg" viewBox="0 0 100 73.95"><defs><style>.cls-1{fill:#fff;}</style></defs><path class="cls-1" d="M47.5,21.05A19.38,19.38,0,0,1,54.35,5.9C49.55,2.68,42.86,1,35,1H0v.2C4.72,3.9,5.75,7,5.75,13.73V60.17c0,6.81-1,9.88-5.75,12.56v.19H29.28v-.19c-6.65-2.88-8.11-5.43-8.11-12V43.13h13.9c8.65,0,15.85-2,20.7-5.9C50.89,34,47.5,29.16,47.5,21.05ZM30.11,40.46H21.17V3.7h8.94c11.8,0,17.27,7.48,17.27,18.38S41.91,40.46,30.11,40.46Z"/><path class="cls-1" d="M59.58,11C61,5.19,66.31,2.13,72.37,2.13,83.16,2.13,90,10,95.67,20.74h.24L95.47,0c-1.53,1.42-3.18,3.15-6.06,3.15-3.77,0-9.13-3.15-17-3.15-7.28,0-13.57,2.13-18,5.9A18.5,18.5,0,0,1,59.58,11ZM75.25,28.85c-5-1.5-9.61-3.11-12.6-5.91a18.12,18.12,0,0,1-6.88,14.29c3.69,2.44,8.22,4,12.71,5.39,10,3.19,19.91,5.67,19.91,15.7,0,8.66-6.14,13.46-14.88,13.46-10.19,0-20.15-8.1-26.52-21.13h-.2L48.33,74c2.16-1.85,4.09-3.27,7-3.27,4.25,0,10,3.27,18.3,3.27C87.49,74,100,66.67,100,52.26,100,35.73,86.74,32.23,75.25,28.85Z"/></svg>