<?xml version="1.0" encoding="UTF-8" standalone="no"?>
<svg
   height="511.99902pt"
   viewBox="-26 0 460.00107 512.00002"
   width="460.00107pt"
   version="1.1"
   id="svg64"
   sodipodi:docname="quote.svg"
   inkscape:version="1.2.2 (732a01da63, 2022-12-09)"
   xmlns:inkscape="http://www.inkscape.org/namespaces/inkscape"
   xmlns:sodipodi="http://sodipodi.sourceforge.net/DTD/sodipodi-0.dtd"
   xmlns="http://www.w3.org/2000/svg"
   xmlns:svg="http://www.w3.org/2000/svg">
  <defs
     id="defs68" />
  <sodipodi:namedview
     id="namedview66"
     pagecolor="#505050"
     bordercolor="#eeeeee"
     borderopacity="1"
     inkscape:showpageshadow="0"
     inkscape:pageopacity="0"
     inkscape:pagecheckerboard="0"
     inkscape:deskcolor="#505050"
     inkscape:document-units="pt"
     showgrid="false"
     inkscape:zoom="1.1777344"
     inkscape:cx="306.52073"
     inkscape:cy="341.75788"
     inkscape:window-width="1920"
     inkscape:window-height="991"
     inkscape:window-x="1699"
     inkscape:window-y="-9"
     inkscape:window-maximized="1"
     inkscape:current-layer="svg64" />
  <path
     d="m 223.9995,492 h -230 V 20 h 30.003906 c 5.519532,0 10,-4.476562 10,-10 0,-5.523438 -4.480468,-10 -10,-10 H -16.0005 c -5.523438,0 -10,4.476562 -10,10 v 492 c 0,5.52344 4.476562,10 10,10 h 240 c 5.51953,0 10,-4.47656 10,-10 0,-5.52344 -4.48047,-10 -10,-10 z m 0,0"
     id="path36"
     style="fill:#ffffff" />
  <path
     d="m 427.96044,195.00781 -13.19922,-13.19922 c -3.89844,-3.89453 -9.08594,-6.04297 -14.61328,-6.04297 -5.53125,0 -10.71875,2.14844 -14.61328,6.04297 L 353.9995,213.34375 V 10 c 0,-5.523438 -4.47656,-10 -10,-10 H 104.00341 c -5.52344,0 -10,4.476562 -10,10 0,5.523438 4.47656,10 10,10 H 333.9995 v 213.34375 l -27.09375,27.08984 c -0.92188,-0.27734 -1.89453,-0.42968 -2.90625,-0.42968 H 24.003406 c -5.523437,0 -10,4.47656 -10,9.99609 0,5.52344 4.476563,10 10,10 H 287.33934 l -95.78906,95.78906 c -0.95703,0.95703 -1.71094,2.10156 -2.21484,3.35938 L 172.99559,420 h -68.99218 c -5.52344,0 -10,4.47656 -10,10 0,5.52344 4.47656,10 10,10 h 75.7539 0.0117 c 0.32422,0 0.65234,-0.0156 0.97656,-0.0469 0.14063,-0.0156 0.27735,-0.043 0.41797,-0.0625 0.17578,-0.0234 0.35547,-0.043 0.53125,-0.0781 0.19141,-0.0391 0.375,-0.0898 0.5586,-0.13672 0.125,-0.0312 0.24609,-0.0586 0.37109,-0.0937 0.20312,-0.0625 0.40625,-0.13672 0.60547,-0.21094 0.082,-0.0312 0.16797,-0.0508 0.25,-0.0859 l 0.15234,-0.0586 c 0.0117,-0.008 0.0234,-0.0117 0.0352,-0.0156 l 46.95312,-18.78125 c 1.25782,-0.50391 2.39844,-1.25391 3.35547,-2.21094 L 333.9995,318.19531 V 492 h -30 c -5.52344,0 -10,4.47656 -10,10 0,5.52344 4.47656,10 10,10 h 40 c 5.51953,0 10,-4.47656 10,-10 V 298.19531 l 73.96094,-73.96094 c 8.05468,-8.05859 8.05468,-21.17187 0,-29.22656 z m -206.67578,207.61328 -23.57032,9.42969 9.42969,-23.57031 151.56641,-151.5625 14.14062,14.14062 z m 192.53125,-192.53125 -26.82422,26.82813 -14.14063,-14.14453 26.82422,-26.82422 c 0.24219,-0.24219 0.69922,-0.24219 0.94141,0 l 13.19922,13.19922 c 0.24218,0.24218 0.24218,0.70312 0,0.9414 z m 0,0"
     id="path38"
     style="fill:#ffffff" />
  <path
     d="m 183.9995,100 h 120 c 5.51953,0 10,-4.476562 10,-10 V 50 c 0,-5.523438 -4.48047,-10 -10,-10 h -120 c -5.52344,0 -10,4.476562 -10,10 v 40 c 0,5.523438 4.47656,10 10,10 z m 10,-40 h 100 v 20 h -100 z m 0,0"
     id="path40"
     style="fill:#ffffff" />
  <path
     d="m 14.003406,230.00391 c 0,5.51953 4.476563,10 10,10 H 303.9995 c 5.51953,0 10,-4.48047 10,-10 0,-5.52344 -4.48047,-10 -10,-10 H 24.003406 c -5.523437,0 -10,4.47656 -10,10 z m 0,0"
     id="path42"
     style="fill:#ffffff" />
  <path
     d="m 173.9995,170 c 0,5.52344 4.47656,10 10,10 h 120 c 5.51953,0 10,-4.47656 10,-10 v -40 c 0,-5.52344 -4.48047,-10 -10,-10 h -120 c -5.52344,0 -10,4.47656 -10,10 z m 20,-30 h 100 v 20 h -100 z m 0,0"
     id="path44"
     style="fill:#ffffff" />
  <path
     d="m 44.003406,310.19922 c -16.542968,0 -30,13.46094 -30,30 0,16.54297 13.457032,30 30,30 16.539063,0 30.000004,-13.45703 30.000004,-30 0,-16.53906 -13.460941,-30 -30.000004,-30 z m 0,40 c -5.515625,0 -10,-4.48438 -10,-10 0,-5.51172 4.484375,-10 10,-10 5.511719,0 10,4.48828 10,10 0,5.51562 -4.488281,10 -10,10 z m 0,0"
     id="path46"
     style="fill:#ffffff" />
  <path
     d="m 44.003406,400 c -16.542968,0 -30,13.46094 -30,30 0,16.54297 13.457032,30 30,30 16.539063,0 30.000004,-13.45703 30.000004,-30 0,-16.53906 -13.460941,-30 -30.000004,-30 z m 0,40 c -5.515625,0 -10,-4.48438 -10,-10 0,-5.51172 4.484375,-10 10,-10 5.511719,0 10,4.48828 10,10 0,5.51562 -4.488281,10 -10,10 z m 0,0"
     id="path48"
     style="fill:#ffffff" />
  <path
     d="m 104.00341,350.19922 h 84 c 5.52343,0 10,-4.47656 10,-10 0,-5.52344 -4.47657,-10 -10,-10 h -84 c -5.52344,0 -10,4.47656 -10,10 0,5.52344 4.47656,10 10,10 z m 0,0"
     id="path50"
     style="fill:#ffffff" />
  <path
     d="M 123.99559,40 H 24.003406 c -5.523437,0 -10,4.476562 -10,10 0,5.523438 4.476563,10 10,10 h 99.992184 c 5.52344,0 10,-4.476562 10,-10 0,-5.523438 -4.47656,-10 -10,-10 z m 0,0"
     id="path52"
     style="fill:#ffffff" />
  <path
     d="m 24.003406,100 h 99.992184 c 5.52344,0 10,-4.476562 10,-10 0,-5.523438 -4.47656,-10 -10,-10 H 24.003406 c -5.523437,0 -10,4.476562 -10,10 0,5.523438 4.476563,10 10,10 z m 0,0"
     id="path54"
     style="fill:#ffffff" />
  <path
     d="m 24.003406,140 h 99.992184 c 5.52344,0 10,-4.47656 10,-10 0,-5.52344 -4.47656,-10 -10,-10 H 24.003406 c -5.523437,0 -10,4.47656 -10,10 0,5.52344 4.476563,10 10,10 z m 0,0"
     id="path56"
     style="fill:#ffffff" />
  <path
     d="m 24.003406,180 h 99.992184 c 5.52344,0 10,-4.47656 10,-10 0,-5.52344 -4.47656,-10 -10,-10 H 24.003406 c -5.523437,0 -10,4.47656 -10,10 0,5.52344 4.476563,10 10,10 z m 0,0"
     id="path58"
     style="fill:#ffffff" />
  <path
     d="m 64.003406,20 c 5.523438,0 10.000004,-4.476562 10.000004,-10 0,-5.523438 -4.476566,-10 -10.000004,-10 h -0.0039 c -5.523438,0 -9.996094,4.476562 -9.996094,10 0,5.523438 4.476563,10 10,10 z m 0,0"
     id="path60"
     style="fill:#ffffff" />
  <path
     d="m 264.00341,492 h -0.008 c -5.52325,0 -9.99591,4.47656 -9.99591,10 0,5.52344 4.48047,10 10.00391,10 5.51953,0 10,-4.47656 10,-10 0,-5.52344 -4.48047,-10 -10,-10 z m 0,0"
     id="path62"
     style="fill:#ffffff" />
</svg>
