<?xml version="1.0" encoding="UTF-8" standalone="no"?>

<svg
   version="1.1"
   id="Capa_1"
   x="0px"
   y="0px"
   viewBox="0 0 20 20"
   xml:space="preserve"
   sodipodi:docname="read-more.svg"
   width="20"
   height="20"
   inkscape:version="1.2.2 (732a01da63, 2022-12-09)"
   xmlns:inkscape="http://www.inkscape.org/namespaces/inkscape"
   xmlns:sodipodi="http://sodipodi.sourceforge.net/DTD/sodipodi-0.dtd"
   xmlns="http://www.w3.org/2000/svg"
   xmlns:svg="http://www.w3.org/2000/svg"><defs
   id="defs82" /><sodipodi:namedview
   id="namedview80"
   pagecolor="#505050"
   bordercolor="#eeeeee"
   borderopacity="1"
   inkscape:showpageshadow="0"
   inkscape:pageopacity="0"
   inkscape:pagecheckerboard="0"
   inkscape:deskcolor="#505050"
   showgrid="false"
   inkscape:zoom="1.5703125"
   inkscape:cx="256"
   inkscape:cy="103.48259"
   inkscape:window-width="1920"
   inkscape:window-height="991"
   inkscape:window-x="1699"
   inkscape:window-y="-9"
   inkscape:window-maximized="1"
   inkscape:current-layer="Capa_1" />
<g
   id="g47"
   style="fill:#2aff2a"
   transform="scale(0.0390625)">
	<g
   id="g45"
   style="fill:#2aff2a">
		<path
   d="M 256,0 C 114.833,0 0,114.833 0,256 0,397.167 114.833,512 256,512 397.167,512 512,397.167 512,256 512,114.833 397.167,0 256,0 Z m 82.208,263.542 -117.333,117.333 c -2.042,2.042 -4.771,3.125 -7.542,3.125 -1.375,0 -2.771,-0.271 -4.083,-0.813 -3.979,-1.646 -6.583,-5.542 -6.583,-9.854 v -32 c 0,-2.833 1.125,-5.542 3.125,-7.542 L 283.583,256 205.791,178.208 c -2,-2 -3.125,-4.708 -3.125,-7.542 v -32 c 0,-4.313 2.604,-8.208 6.583,-9.854 3.979,-1.604 8.583,-0.729 11.625,2.313 l 117.333,117.333 c 4.168,4.167 4.168,10.917 0.001,15.084 z"
   id="path43"
   style="fill:#2aff2a" />
	</g>
</g>
<g
   id="g49">
</g>
<g
   id="g51">
</g>
<g
   id="g53">
</g>
<g
   id="g55">
</g>
<g
   id="g57">
</g>
<g
   id="g59">
</g>
<g
   id="g61">
</g>
<g
   id="g63">
</g>
<g
   id="g65">
</g>
<g
   id="g67">
</g>
<g
   id="g69">
</g>
<g
   id="g71">
</g>
<g
   id="g73">
</g>
<g
   id="g75">
</g>
<g
   id="g77">
</g>
</svg>
