<?xml version="1.0" encoding="UTF-8" standalone="no"?>
{/* Generator: Adobe Illustrator 27.2.0, SVG Export Plug-In . SVG Version: 6.00 Build 0)  */}

<svg
   version="1.1"
   id="Capa_1"
   x="0px"
   y="0px"
   viewBox="0 0 96.000008 106.93413"
   xml:space="preserve"
   width="12.000001"
   height="13.366766"
   sodipodi:docname="right-decision.svg"
   inkscape:version="1.2.2 (732a01da63, 2022-12-09)"
   xmlns:inkscape="http://www.inkscape.org/namespaces/inkscape"
   xmlns:sodipodi="http://sodipodi.sourceforge.net/DTD/sodipodi-0.dtd"
   xmlns="http://www.w3.org/2000/svg"
   xmlns:svg="http://www.w3.org/2000/svg"><defs
   id="defs447" /><sodipodi:namedview
   id="namedview445"
   pagecolor="#505050"
   bordercolor="#eeeeee"
   borderopacity="1"
   inkscape:showpageshadow="0"
   inkscape:pageopacity="0"
   inkscape:pagecheckerboard="0"
   inkscape:deskcolor="#505050"
   showgrid="false"
   inkscape:zoom="12.5625"
   inkscape:cx="28.736318"
   inkscape:cy="25.671642"
   inkscape:window-width="1920"
   inkscape:window-height="991"
   inkscape:window-x="1699"
   inkscape:window-y="-9"
   inkscape:window-maximized="1"
   inkscape:current-layer="g442" />
<g
   id="g442"
   transform="translate(-26.176566)">
	<path
   style="fill:#33cccc;stroke-width:0.208856"
   d="m 54.246867,45.563757 c -1.027362,2.09e-4 -1.962826,-0.694028 -2.225776,-1.735591 -0.310568,-1.23016 0.434838,-2.479326 1.665207,-2.789895 20.941755,-5.734134 17.180681,-35.9845889 -4.529454,-36.443445 -10.202394,0 -18.502947,8.300553 -18.502947,18.503156 0,8.388481 5.664167,15.744589 13.774035,17.888702 1.22661,0.324353 1.958232,1.581664 1.633879,2.808274 -0.324353,1.22661 -1.581038,1.958649 -2.808274,1.633878 C 17.346236,38.008192 22.198373,0.56370161 49.15747,0 c 27.103626,0.5760241 31.794108,38.336096 5.653516,45.493373 -0.188806,0.04762 -0.378029,0.07038 -0.564119,0.07038 z"
   id="path432" />
	<path
   style="fill:#33cccc;stroke-width:0.208856"
   d="m 99.078584,46.195963 c -12.736231,0 -23.097981,-10.36175 -23.097981,-23.097981 1.161238,-30.6004975 45.039317,-30.5921433 46.195967,2.09e-4 -2.1e-4,12.736022 -10.36175,23.097772 -23.097986,23.097772 z m 0,-41.601137 c -10.202811,0 -18.503155,8.300553 -18.503155,18.503156 0.930034,24.513397 36.079831,24.506713 37.006311,-2.09e-4 C 117.58153,12.895379 109.28119,4.594826 99.078584,4.594826 Z"
   id="path434" />
	<path
   d="m 73.475378,106.93413 c -1.268798,0 -2.297413,-1.02861 -2.297413,-2.29741 v -4.736848 c 0,-0.752924 0.369048,-1.458021 0.98747,-1.887429 5.294284,-3.674608 8.454689,-9.680254 8.454689,-16.064974 V 69.467086 c -0.02381,-2.680454 -3.722227,-3.717423 -5.271728,-1.47661 -0.535506,0.75397 -1.471597,1.11341 -2.373436,0.911864 -0.902675,-0.201545 -1.596493,-0.924604 -1.760654,-1.834797 -0.464077,-2.506478 -3.748751,-3.261909 -5.225988,-1.15727 -0.535506,0.75397 -1.471597,1.113201 -2.373645,0.912073 -0.902675,-0.201545 -1.596702,-0.924604 -1.760654,-1.834797 -0.647662,-3.164582 -5.067884,-3.162494 -5.714502,0 -0.211153,1.170636 -1.279659,1.985173 -2.46575,1.880954 -1.184839,-0.105889 -2.092944,-1.09879 -2.092944,-2.288432 V 41.501513 c -0.12218,-3.211783 -4.726196,-3.209277 -4.847332,0 v 37.325861 c -0.112991,3.044907 -4.48288,3.04261 -4.594826,0 v -3.884508 c -0.245824,0.188805 -0.473894,0.420844 -0.685465,0.696743 -1.410611,1.838139 -1.774229,5.252095 -0.905389,8.495206 1.805766,6.740401 5.013581,11.213673 10.401015,14.50524 0.683167,0.417293 1.099834,1.159984 1.099834,1.960525 v 4.03614 c -0.112991,3.04491 -4.482879,3.04261 -4.594826,0 v -2.77924 C 41.711346,98.00931 38.091667,92.722128 36.109835,85.32404 34.473868,78.902562 35.933352,71.735468 42.138874,69.953303 v -28.45179 c 0.35401,-9.300554 13.686315,-9.293453 14.036984,0 v 17.048476 c 3.0117,-1.295533 6.862164,-0.212616 8.756277,2.365291 3.09002,-1.688599 7.329374,-0.693819 9.360287,2.080203 4.80222,-2.573103 10.999596,1.065582 10.922737,6.471395 V 81.94726 c 0,7.483928 -3.507523,14.541789 -9.442159,19.11698 v 3.57248 c -2.09e-4,1.2688 -1.028823,2.29741 -2.297622,2.29741 z"
   id="path436"
   style="fill:#ffffff;stroke-width:0.208856" />
	<path
   d="m 46.557008,30.595485 c -0.609233,0 -1.193611,-0.242064 -1.62448,-0.672934 l -5.20009,-5.200089 c -0.897244,-0.897245 -0.897244,-2.351925 0,-3.249169 0.897453,-0.897244 2.351715,-0.897244 3.249168,0 l 3.57561,3.575819 8.775701,-8.775909 c 0.897453,-0.897035 2.351715,-0.897244 3.249168,0 0.897244,0.897244 0.897244,2.351924 0,3.249169 l -10.40018,10.400179 c -0.431287,0.43087 -1.015665,0.672934 -1.624897,0.672934 z"
   id="path438"
   style="fill:#ffffff;stroke-width:0.208856" />
	<path
   d="m 102.32754,23.097982 4.09587,-4.095661 c 0.89725,-0.897244 0.89725,-2.351925 0,-3.249169 -0.89724,-0.897035 -2.35192,-0.897035 -3.24916,0 l -4.095874,4.095661 -4.095661,-4.095661 c -0.897453,-0.897244 -2.351716,-0.897244 -3.249169,0 -0.897244,0.897244 -0.897244,2.351925 0,3.249169 l 4.095661,4.095661 -4.095661,4.095661 c -0.897244,0.897244 -0.897244,2.351924 0,3.249168 0.897244,0.897244 2.351716,0.897035 3.249169,0 l 4.095661,-4.095661 4.095664,4.095661 c 0.89724,0.897244 2.35171,0.897244 3.24916,0 0.89725,-0.897244 0.89725,-2.351924 0,-3.249168 z"
   id="path440"
   style="fill:#ffffff;stroke-width:0.208856" />
</g>















</svg>
