<?xml version="1.0" encoding="UTF-8" standalone="no"?>
<svg
   version="1.1"
   width="32"
   height="32"
   x="0"
   y="0"
   viewBox="0 0 4 4"
   xml:space="preserve"
   
   id="svg1030"
   sodipodi:docname="supermarket.svg"
   inkscape:version="1.2.2 (732a01da63, 2022-12-09)"
   xmlns:inkscape="http://www.inkscape.org/namespaces/inkscape"
   xmlns:sodipodi="http://sodipodi.sourceforge.net/DTD/sodipodi-0.dtd"
   xmlns="http://www.w3.org/2000/svg"
   xmlns:svg="http://www.w3.org/2000/svg"><defs
   id="defs1034" /><sodipodi:namedview
   id="namedview1032"
   pagecolor="#505050"
   bordercolor="#eeeeee"
   borderopacity="1"
   inkscape:showpageshadow="0"
   inkscape:pageopacity="0"
   inkscape:pagecheckerboard="0"
   inkscape:deskcolor="#505050"
   showgrid="false"
   inkscape:zoom="1.5703125"
   inkscape:cx="256"
   inkscape:cy="154.42786"
   inkscape:window-width="1920"
   inkscape:window-height="991"
   inkscape:window-x="1699"
   inkscape:window-y="-9"
   inkscape:window-maximized="1"
   inkscape:current-layer="svg1030" />
  <g
   id="g1028"
   transform="scale(0.0625)">
    <g
   data-name="22-Supermarket"
   id="g1026">
      <path
   d="m 3,26 h 2 v 2 H 3 Z M 60,60 H 4 A 1,1 0 0 1 3,59 V 30 H 5 V 58 H 59 V 23 h 2 v 36 a 1,1 0 0 1 -1,1 z"
   fill="#091f81"
   data-original="#000000"
   
   opacity="1"
   id="path1008" />
      <path
   d="M 63,64 H 1 A 1,1 0 0 1 0,63 v -4 a 1,1 0 0 1 1,-1 h 62 a 1,1 0 0 1 1,1 v 4 a 1,1 0 0 1 -1,1 z M 2,62 H 62 V 60 H 2 Z M 63,24 h -6 v -2 h 4.8 L 58.315,2.821 A 1,1 0 0 0 57.331,2 H 6.669 A 1,1 0 0 0 5.686,2.821 L 2.2,22 H 51 v 2 H 1 A 1,1 0 0 1 0.017,22.821 L 3.717,2.464 A 3,3 0 0 1 6.669,0 h 50.662 a 3,3 0 0 1 2.951,2.464 l 3.7,20.357 A 1,1 0 0 1 63,24 Z"
   fill="#091f81"
   data-original="#000000"
   
   opacity="1"
   id="path1010" />
      <path
   d="m 53,22 h 2 v 2 H 53 Z M 20.146,11 H 19.854 A 2.625,2.625 0 0 1 17,8.609 V 8 h 2 V 8.609 C 19,8.709 19.294,9 19.854,9 h 0.292 C 20.706,9 21,8.71 21,8.609 21,8.552 20.89,8.401 20.623,8.302 L 18.675,7.571 A 2.406,2.406 0 0 1 17,5.391 2.625,2.625 0 0 1 19.854,3 h 0.292 A 2.625,2.625 0 0 1 23,5.391 V 6 H 21 V 5.391 C 21,5.291 20.706,5 20.146,5 H 19.854 C 19.294,5 19,5.29 19,5.391 c 0,0.057 0.11,0.208 0.377,0.307 l 1.948,0.731 A 2.406,2.406 0 0 1 23,8.609 2.625,2.625 0 0 1 20.146,11 Z M 26.5,11 A 2.5,2.5 0 0 1 24,8.5 V 3 h 2 v 5.5 a 0.5,0.5 0 0 0 1,0 V 3 h 2 V 8.5 A 2.5,2.5 0 0 1 26.5,11 Z M 32,11 H 30 V 4 a 1,1 0 0 1 1,-1 h 1.5 a 2.5,2.5 0 0 1 0,5 H 32 Z m 0,-5 h 0.5 a 0.5,0.5 0 0 0 0,-1 H 32 Z m 8,5 H 37 A 1,1 0 0 1 36,10 V 4 a 1,1 0 0 1 1,-1 h 3 v 2 h -2 v 4 h 2 z"
   fill="#091f81"
   data-original="#000000"
   
   opacity="1"
   id="path1012" />
      <path
   d="m 37,6 h 2 v 2 h -2 z m 9,5 H 44 V 9.618 l -1,-0.5 V 11 H 41 V 4 a 1,1 0 0 1 1,-1 h 1.146 A 2.856,2.856 0 0 1 45.1,7.934 l 0.343,0.171 A 1,1 0 0 1 46,9 Z M 43,5 V 6.882 L 43.527,6.618 A 0.854,0.854 0 0 0 43.146,5 Z M 19,21 h -2 v -4 l -1.2,1.6 a 1.036,1.036 0 0 1 -1.6,0 L 13,17 v 4 h -2 v -7 a 1,1 0 0 1 1.8,-0.6 L 15,16.333 17.2,13.4 A 1,1 0 0 1 19,14 Z m 7,0 h -2 v -5 a 1,1 0 0 0 -2,0 v 5 h -2 v -5 a 3,3 0 0 1 6,0 z"
   fill="#091f81"
   data-original="#000000"
   
   opacity="1"
   id="path1014" />
      <path
   d="m 21,18 h 4 v 2 h -4 z m 12,3 H 31 V 19.721 L 29,19.054 V 21 h -2 v -7 a 1,1 0 0 1 1,-1 h 2.257 a 2.744,2.744 0 0 1 1.669,4.921 l 0.39,0.131 A 1,1 0 0 1 33,19 Z m -4,-6 v 1.946 l 1.491,-0.5 A 0.743,0.743 0 0 0 30.257,15 Z m 5,-2 h 2 v 8 h -2 z"
   fill="#091f81"
   data-original="#000000"
   
   opacity="1"
   id="path1016" />
      <path
   d="M 40,21 H 38 V 19.618 L 34.553,17.9 a 1,1 0 0 1 0,-1.79 L 38,14.382 V 13 h 2 v 2 a 1,1 0 0 1 -0.553,0.895 L 37.236,17 39.447,18.105 A 1,1 0 0 1 40,19 Z m 5,0 h -3 a 1,1 0 0 1 -1,-1 v -6 a 1,1 0 0 1 1,-1 h 3 v 2 h -2 v 4 h 2 z"
   fill="#091f81"
   data-original="#000000"
   
   opacity="1"
   id="path1018" />
      <path
   d="m 42,16 h 2 v 2 h -2 z m 4,-3 h 6 v 2 h -6 z"
   fill="#091f81"
   data-original="#000000"
   
   opacity="1"
   id="path1020" />
      <path
   d="m 48,14 h 2 v 7 H 48 Z M 22,56 H 8 A 1,1 0 0 1 7,55 V 27 a 1,1 0 0 1 1,-1 h 14 a 1,1 0 0 1 1,1 v 28 a 1,1 0 0 1 -1,1 z M 9,54 H 21 V 28 H 9 Z m 30,6 H 25 A 1,1 0 0 1 24,59 V 27 a 1,1 0 0 1 1,-1 h 14 a 1,1 0 0 1 1,1 v 32 a 1,1 0 0 1 -1,1 z M 26,58 H 38 V 28 H 26 Z M 56,56 H 42 A 1,1 0 0 1 41,55 V 27 a 1,1 0 0 1 1,-1 h 14 a 1,1 0 0 1 1,1 v 28 a 1,1 0 0 1 -1,1 z M 43,54 H 55 V 28 H 43 Z"
   fill="#091f81"
   data-original="#000000"
   
   opacity="1"
   id="path1022" />
      <path
   d="M 41.285,41.293 55.283,27.295 56.697,28.709 42.7,42.707 Z m 4.999,7 8.998,-8.998 1.414,1.414 -8.998,8.998 z m -5.001,-1 6.999,-6.999 1.414,1.414 -6.999,6.999 z m 9,-8.999 2,-2 1.414,1.414 -2,2 z M 7.29,41.29 21.287,27.292 22.701,28.706 8.703,42.704 Z m 4.997,7 8.998,-9 1.414,1.415 -8.998,8.998 z m -5,-1.001 6.999,-6.999 1.414,1.414 -7,6.999 z m 9,-8.999 2,-1.999 1.414,1.414 -2,2 z"
   fill="#091f81"
   data-original="#000000"
   
   opacity="1"
   id="path1024" />
    </g>
  </g>
</svg>
