<?xml version="1.0" encoding="UTF-8" standalone="no"?>

<svg
   version="1.1"
   id="Capa_1"
   x="0px"
   y="0px"
   viewBox="0 0 96.0075 96.155186"
   xml:space="preserve"
   width="12"
   height="12.018459"
   sodipodi:docname="tech-support.svg"
   inkscape:version="1.2.2 (732a01da63, 2022-12-09)"
   xmlns:inkscape="http://www.inkscape.org/namespaces/inkscape"
   xmlns:sodipodi="http://sodipodi.sourceforge.net/DTD/sodipodi-0.dtd"
   xmlns="http://www.w3.org/2000/svg"
   xmlns:svg="http://www.w3.org/2000/svg"><defs
   id="defs424" /><sodipodi:namedview
   id="namedview422"
   pagecolor="#505050"
   bordercolor="#eeeeee"
   borderopacity="1"
   inkscape:showpageshadow="0"
   inkscape:pageopacity="0"
   inkscape:pagecheckerboard="0"
   inkscape:deskcolor="#505050"
   showgrid="false"
   inkscape:zoom="12.5625"
   inkscape:cx="31.920398"
   inkscape:cy="19.781095"
   inkscape:window-width="1920"
   inkscape:window-height="991"
   inkscape:window-x="1699"
   inkscape:window-y="-9"
   inkscape:window-maximized="1"
   inkscape:current-layer="g419" />
<g
   id="g419"
   transform="translate(-0.39243557,2.8642767e-4)">
	<path
   d="M 91.351192,36.628817 C 90.711772,14.833542 69.905578,-0.39064454 48.396117,0.00746668 26.891538,-0.39402473 6.0753915,14.836734 5.4427327,36.628254 2.4544572,38.100138 0.39291714,41.176674 0.39291714,44.726625 v 20.0372 C 0.3341394,70.397099 5.6654496,74.69332 11.155629,73.653349 v 20.435875 c 0,1.140814 0.924857,2.065672 2.065671,2.065672 h 70.437143 c 1.140814,0 2.065672,-0.924858 2.065672,-2.065672 V 73.668747 c 5.470086,0.977063 10.7306,-3.303572 10.67539,-8.905109 0,0 0,-20.037201 0,-20.037201 1.88e-4,-3.549387 -2.060789,-6.625547 -5.048313,-8.09762 z M 14.514598,64.763638 c 0.0066,2.775323 -2.331767,5.001366 -5.0992035,4.890946 -2.6970158,0 -4.8911345,-2.194118 -4.8911345,-4.890946 V 44.726437 c -0.00657,-2.775324 2.3317675,-5.001554 5.0992039,-4.891135 2.6968281,0 4.8909471,2.194307 4.8909471,4.891135 0.003,1.104571 -0.0019,19.520595 1.87e-4,20.037201 z M 9.6328533,35.704335 c 0.6193257,-8.401086 4.5313317,-16.085947 11.1801647,-21.84072 21.377259,-18.9660561 63.91319,-9.2707333 66.347677,21.84072 -2.113933,0.0019 -4.058481,0.736318 -5.597218,1.960322 -7.931052,-35.3100242 -58.417752,-35.2848605 -66.334344,0 -1.53855,-1.223816 -3.482722,-1.958256 -5.5962797,-1.960322 z m 67.9547697,3.141886 h -9.716731 l -5.477785,-8.181749 c -0.382149,-0.570501 -1.022695,-0.913965 -1.709437,-0.916407 -0.686366,-0.0024 -1.329729,0.336705 -1.715634,0.904764 l -5.567173,8.193392 H 19.204987 c 6.691649,-31.3953889 51.703569,-31.3732299 58.382636,0 z M 15.287159,92.023553 V 71.779972 c 0.130138,-0.105349 0.258209,-0.213327 0.382337,-0.325437 2.390358,8.840511 8.325408,16.238995 16.180593,20.569018 z M 21.414317,75.160725 H 34.905968 V 71.029383 H 19.842341 c -0.777256,-2.629225 -1.196588,-5.41037 -1.196588,-8.288225 0.02329,-1.092365 -0.05258,-19.099011 0.04244,-19.763594 h 35.806349 c 0.6843,0 1.324095,-0.33877 1.708685,-0.904764 l 4.460536,-6.564892 4.387674,6.553249 c 0.383464,0.572755 1.027202,0.916407 1.716573,0.916407 h 11.336405 c 0.0276,0.520174 0.04244,19.763594 0.04244,19.763594 0,16.145851 -13.135605,29.281456 -29.281456,29.281456 C 36.886196,92.389177 26.191651,85.406268 21.414317,75.160725 Z M 81.59296,92.023553 H 64.942709 c 7.855185,-4.330023 13.790235,-11.728507 16.180592,-20.569018 0.151545,0.137086 0.3091,0.267411 0.469659,0.394168 z M 92.26835,64.763638 c -0.227412,6.506114 -9.76011,6.512686 -9.990339,0 0.01014,-0.44243 -0.0073,-19.001173 0,-20.037201 0.226849,-6.505363 9.759735,-6.513813 9.990339,0 0,0 0,20.037201 0,20.037201 z"
   id="path415"
   style="fill:#ffffff;stroke-width:0.187788" />
	<path
   style="fill:#33cccc;stroke-width:0.187788"
   d="M 57.567511,81.341402 H 39.225287 c -2.381531,0 -4.319131,-1.937412 -4.319131,-4.319131 v -7.854434 c 0,-2.381719 1.9376,-4.319131 4.319131,-4.319131 h 18.342224 c 2.381531,0 4.319131,1.937412 4.319131,4.319131 v 7.854434 c 0,2.381531 -1.9376,4.319131 -4.319131,4.319131 z M 39.225287,68.980049 c -0.09821,0 -0.187788,0.08958 -0.187788,0.187788 v 7.854434 c 0,0.09821 0.08958,0.187788 0.187788,0.187788 h 18.342224 c 0.09821,0 0.187788,-0.08957 0.187788,-0.187788 v -7.854434 c 0,-0.09821 -0.08958,-0.187788 -0.187788,-0.187788 z"
   id="path417" />
</g>















</svg>
