<?xml version="1.0" encoding="UTF-8" standalone="no"?>
<svg
   version="1.1"
   width="32.058231"
   height="31.999998"
   x="0"
   y="0"
   viewBox="0 0 32.058231 31.999998"
   xml:space="preserve"
   
   id="svg20"
   sodipodi:docname="university.svg"
   inkscape:version="1.2.2 (732a01da63, 2022-12-09)"
   xmlns:inkscape="http://www.inkscape.org/namespaces/inkscape"
   xmlns:sodipodi="http://sodipodi.sourceforge.net/DTD/sodipodi-0.dtd"
   xmlns="http://www.w3.org/2000/svg"
   xmlns:svg="http://www.w3.org/2000/svg"><defs
     id="defs24" /><sodipodi:namedview
     id="namedview22"
     pagecolor="#505050"
     bordercolor="#eeeeee"
     borderopacity="1"
     inkscape:showpageshadow="0"
     inkscape:pageopacity="0"
     inkscape:pagecheckerboard="0"
     inkscape:deskcolor="#505050"
     showgrid="false"
     inkscape:zoom="1.5703125"
     inkscape:cx="256"
     inkscape:cy="256.31841"
     inkscape:window-width="1920"
     inkscape:window-height="991"
     inkscape:window-x="1699"
     inkscape:window-y="-9"
     inkscape:window-maximized="1"
     inkscape:current-layer="svg20" /><g
     id="g18"
     transform="scale(0.06261373)"><path
       d="m 255.5,155.262 c 25.348,0 45.973,-20.621 45.973,-45.973 0,-25.348 -20.625,-45.969 -45.973,-45.969 -25.348,0 -45.973,20.621 -45.973,45.97 0,25.35 20.625,45.972 45.973,45.972 z m 0,-61.942 c 8.809,0 15.973,7.164 15.973,15.97 0,8.808 -7.168,15.972 -15.973,15.972 -8.805,0 -15.973,-7.164 -15.973,-15.973 0,-8.805 7.164,-15.969 15.973,-15.969 z m 0,0"
       fill="#091f81"
       data-original="#000000"
       opacity="1"
       
       id="path14" /><path
       d="M 512,202.625 V 117.977 L 256,0 0,117.977 v 84.648 H 50.54 V 354.07 H 24 v 57.25 H 0 v 99.75 H 512 V 411.32 H 499 V 354.07 H 460.46 V 202.625 Z m -482,-30 V 137.184 L 256,33.03 482,137.183 V 172.62 H 30 Z M 206.77,354.07 H 148 V 202.625 h 58.77 z m 30,-151.445 h 37.46 V 354.07 h -37.46 z m 67.46,0 H 363 V 354.07 h -58.77 z m -223.69,0 H 118 V 354.07 H 80.54 Z M 482,481.07 H 30 v -39.75 h 452 z m -13,-97 v 27.25 H 54 v -27.25 z m -38.54,-30 H 393 V 202.625 h 37.46 z m 0,0"
       fill="#091f81"
       data-original="#000000"
       opacity="1"
       
       id="path16" /></g></svg>
